<svg width="50" height="50" viewBox="0 0 50 50" fill="none" xmlns="http://www.w3.org/2000/svg">
<path d="M9.13313 9.55882L12.2291 7.93343L15.3251 9.55882L14.7446 6.11455L17.2601 3.67647L13.7771 3.17337L12.2291 0.0386963L10.6811 3.17337L7.19814 3.67647L9.71362 6.11455L9.13313 9.55882ZM10.8746 4.41176L11.5325 4.29566L11.8421 3.67647L12.2291 2.86377L12.6161 3.67647L12.9257 4.29566L13.5836 4.41176L14.4737 4.52786L13.8158 5.18575L13.3514 5.65015L13.4675 6.30804L13.6223 7.19814L12.8096 6.77244L12.2291 6.46284L11.6486 6.77244L10.8359 7.23684L10.9907 6.34675L11.1068 5.68885L10.6424 5.22445L9.98452 4.56656L10.8746 4.41176ZM34.2879 9.55882L37.3839 7.93343L40.4799 9.55882L39.8994 6.11455L42.4149 3.67647L38.9319 3.17337L37.3839 0.0386963L35.8359 3.17337L32.3529 3.67647L34.8684 6.11455L34.2879 9.55882ZM36.0294 4.41176L36.6873 4.29566L36.9969 3.67647L37.3839 2.86377L37.7709 3.67647L38.0805 4.29566L38.7384 4.41176L39.6285 4.52786L38.9706 5.18575L38.5062 5.65015L38.6223 6.30804L38.7771 7.19814L37.9644 6.77244L37.3839 6.46284L36.8034 6.77244L35.9907 7.23684L36.1455 6.34675L36.2616 5.68885L35.7972 5.22445L35.1393 4.56656L36.0294 4.41176ZM21.904 24.5356L25 22.9102L28.096 24.5356L27.5155 21.0913L30.031 18.6532L26.548 18.1502L25 15.0155L23.452 18.1502L19.969 18.6532L22.4845 21.0913L21.904 24.5356ZM23.6455 19.3885L24.3034 19.3111L24.613 18.6919L25 17.8793L25.387 18.6919L25.6966 19.3111L26.3545 19.3885L27.2446 19.5046L26.5867 20.1625L26.1223 20.6269L26.2384 21.2848L26.3932 22.1749L25.5805 21.7492L25 21.4396L24.4195 21.7492L23.6068 22.1749L23.7616 21.2848L23.8777 20.6269L23.4133 20.1625L22.7554 19.5046L23.6455 19.3885ZM10.2554 15.8669C10.2554 13.0418 7.97214 10.7198 5.10836 10.7198C2.24458 10.7198 0 13.0418 0 15.8669C0 18.6919 2.28328 21.0139 5.14706 21.0139C8.01084 21.0139 10.2554 18.6919 10.2554 15.8669ZM2.39938 15.8669C2.39938 14.3576 3.63777 13.1192 5.14706 13.1192C6.65635 13.1192 7.89474 14.3576 7.89474 15.8669C7.89474 17.3762 6.65635 18.6145 5.14706 18.6145C3.63777 18.6145 2.39938 17.3762 2.39938 15.8669ZM41.4087 28.7539C37.8096 31.8111 32.469 34.7136 25 34.7136C17.4923 34.7136 12.1517 31.8498 8.59133 28.8313V25H1.70279V50H8.59133V31.8498C12.4613 34.6749 17.8019 37.113 25 37.113C32.1981 37.113 37.5774 34.7136 41.4087 31.8498V50H48.2972V25H41.4087V28.7539ZM6.15325 47.6006H4.06347V27.3994H6.15325V47.6006ZM43.8081 27.3994H45.8978V47.6006H43.8081V27.3994ZM44.8529 10.7585C42.0279 10.7585 39.7059 13.0418 39.7059 15.9056C39.7059 18.7693 41.9892 21.0526 44.8529 21.0526C47.7167 21.0526 50 18.7693 50 15.9056C50 13.0418 47.678 10.7585 44.8529 10.7585ZM44.8529 18.6145C43.3437 18.6145 42.1053 17.3762 42.1053 15.8669C42.1053 14.3576 43.3437 13.1192 44.8529 13.1192C46.3622 13.1192 47.6006 14.3576 47.6006 15.8669C47.6006 17.3762 46.3622 18.6145 44.8529 18.6145Z" fill="#CECECE"/>
</svg>
