<svg width="49" height="50" viewBox="0 0 49 50" fill="none" xmlns="http://www.w3.org/2000/svg">
<g clip-path="url(#clip0)">
<path d="M25.5316 11.7416L24.5 12.7733L23.4684 11.7416C20.8035 9.08868 16.4807 9.08868 13.8281 11.7416C12.5386 13.0312 11.8386 14.7507 11.8386 16.5684C11.8386 18.3984 12.5386 20.1056 13.8281 21.3952L23.1614 30.7295C23.5175 31.0734 23.9842 31.27 24.5 31.27C25.0035 31.27 25.4702 31.0734 25.814 30.7295L35.1474 21.3952C36.4368 20.1056 37.1368 18.3861 37.1368 16.5684C37.1368 14.7384 36.4368 13.0312 35.1474 11.7416C32.507 9.08868 28.1842 9.08868 25.5316 11.7416ZM33.8825 20.0933L31.7211 22.255C31.7088 22.2673 31.7211 22.2795 31.7088 22.2918L29.6947 24.3061C29.6825 24.3183 29.6702 24.3061 29.6579 24.3183L24.5246 29.4522C24.5246 29.4522 24.5123 29.4645 24.5 29.4645C24.4877 29.4645 24.4754 29.4522 24.4754 29.4522L19.3421 24.3183C19.3298 24.3061 19.3175 24.3183 19.3053 24.3061L17.2912 22.2918C17.2789 22.2795 17.2912 22.2673 17.2789 22.255L15.1175 20.0933C14.1474 19.1231 13.6561 17.8457 13.6561 16.5684C13.6561 15.2911 14.1474 14.0138 15.1175 13.0435C17.0702 11.0906 20.2386 11.0906 22.1912 13.0435L23.4316 14.284C23.714 14.5664 24.0947 14.7261 24.4877 14.7261H24.5H24.5123C24.9175 14.7261 25.286 14.5664 25.5684 14.284L26.8088 13.0435C28.7614 11.0906 31.9298 11.0906 33.8825 13.0435C34.8526 14.0138 35.3439 15.2911 35.3439 16.5684C35.3439 17.8457 34.8526 19.1231 33.8825 20.0933ZM48.8281 8.09383C48.7912 7.92189 48.7544 7.76222 48.7175 7.60255C48.6193 7.17269 48.4842 6.74282 48.3246 6.32523C48.2632 6.17784 48.214 6.03046 48.1526 5.89536C47.907 5.34267 47.6368 4.81454 47.293 4.31098C47.2807 4.2987 47.2684 4.2987 47.2561 4.28642C46.6912 3.46352 45.9789 2.75117 45.1807 2.13707C45.1316 2.07566 45.0825 2.00197 45.0088 1.94056C44.9228 1.87915 44.8368 1.8423 44.7509 1.78089C44.6281 1.69492 44.493 1.62122 44.3702 1.54753C43.9895 1.30189 43.5965 1.0931 43.1912 0.908868C43.0316 0.835176 42.8719 0.773766 42.7 0.700074C42.2825 0.540408 41.8649 0.405306 41.4351 0.30705C41.2754 0.270204 41.1158 0.221076 40.9439 0.18423C40.3421 0.073692 39.7404 0 39.114 0H9.88597C9.25965 0 8.6579 0.073692 8.05614 0.18423C7.88421 0.221076 7.73684 0.257922 7.56491 0.30705C7.13509 0.405306 6.70526 0.540408 6.3 0.700074C6.14035 0.761484 5.9807 0.835176 5.80877 0.908868C5.40351 1.0931 5.01053 1.31417 4.62982 1.54753C4.50702 1.62122 4.37193 1.69492 4.24912 1.78089C4.16316 1.8423 4.07719 1.87915 3.99123 1.94056C3.91754 1.98968 3.86842 2.06337 3.8193 2.13707C3.03333 2.75117 2.32105 3.46352 1.74386 4.28642C1.73158 4.2987 1.7193 4.2987 1.70702 4.31098C1.38772 4.80226 1.10526 5.34267 0.859649 5.89536C0.798246 6.04274 0.749123 6.17784 0.687719 6.32523C0.52807 6.74282 0.392982 7.17269 0.294737 7.60255C0.257895 7.76222 0.208772 7.93417 0.184211 8.09383C0.0736842 8.68337 0 9.28519 0 9.88701V29.0592C0 34.5124 4.43333 38.9462 9.88597 38.9462H13.3491V47.6787C13.3491 48.6367 13.9263 49.4842 14.8228 49.8403C15.1053 49.9509 15.3877 50 15.6825 50C16.3211 50 16.9351 49.7298 17.3649 49.2631L27.0667 38.9462H39.1018C44.5544 38.9462 49 34.5124 49 29.0592V9.88701C49 9.28519 48.9386 8.68337 48.8281 8.09383ZM46.8263 29.0592C46.8263 33.3088 43.3632 36.7723 39.114 36.7723H26.7596C26.3667 36.7723 25.9737 36.9442 25.7035 37.2267L15.793 47.777C15.7684 47.8138 15.7193 47.8507 15.6333 47.8138C15.5351 47.777 15.5351 47.7155 15.5351 47.6787V38.2216C15.5351 37.4232 14.8842 36.7723 14.086 36.7723H9.88597C5.63684 36.7723 2.17368 33.3088 2.17368 29.0592V21.1864V9.88701C2.17368 9.39573 2.23509 8.92901 2.32105 8.46229C2.34561 8.35176 2.37018 8.2535 2.39474 8.14296C2.4807 7.7745 2.59123 7.41832 2.72632 7.07443C2.76316 6.97617 2.8 6.8902 2.83684 6.79194C3.41404 5.49005 4.33509 4.37239 5.48947 3.57406C5.58772 3.50037 5.69825 3.45124 5.79649 3.37755C6.09123 3.19332 6.39825 3.02137 6.71754 2.87399C6.84035 2.81258 6.96316 2.76345 7.08597 2.71432C7.40526 2.5915 7.74912 2.48096 8.09298 2.40727C8.21579 2.38271 8.3386 2.34586 8.4614 2.3213C8.92807 2.23532 9.40702 2.17391 9.89825 2.17391H39.114C39.6053 2.17391 40.0842 2.23532 40.5509 2.3213C40.6737 2.34586 40.7965 2.38271 40.9193 2.40727C41.2632 2.49324 41.5947 2.5915 41.9263 2.71432C42.0491 2.76345 42.1719 2.81258 42.2947 2.87399C42.614 3.02137 42.9211 3.18104 43.2158 3.37755C43.314 3.43896 43.4246 3.50037 43.5228 3.57406C44.6772 4.38467 45.5982 5.49005 46.1754 6.79194C46.2123 6.8902 46.2491 6.97617 46.286 7.07443C46.4211 7.41832 46.5316 7.7745 46.6175 8.14296C46.6421 8.2535 46.6667 8.35176 46.6912 8.46229C46.7772 8.92901 46.8386 9.39573 46.8386 9.88701V29.0592H46.8263Z" fill="#CECECE"/>
</g>
<defs>
<clipPath id="clip0">
<rect width="49" height="50" fill="white"/>
</clipPath>
</defs>
</svg>
