<svg width="50" height="50" viewBox="0 0 50 50" fill="none" xmlns="http://www.w3.org/2000/svg">
<g clip-path="url(#clip0)">
<path d="M12.7044 16.9523H7.6119C7.14286 16.9523 6.76762 17.3273 6.76762 17.7959V22.8843C6.76762 23.353 7.14286 23.7279 7.6119 23.7279H12.7044C13.1734 23.7279 13.5486 23.353 13.5486 22.8843V17.7959C13.5486 17.3273 13.1734 16.9523 12.7044 16.9523ZM11.8601 22.0273H8.45618V18.6395H11.8467V22.0273H11.8601ZM21.1873 16.9523H16.0949C15.6258 16.9523 15.2506 17.3273 15.2506 17.7959V22.8843C15.2506 23.353 15.6258 23.7279 16.0949 23.7279H21.1873C21.6564 23.7279 22.0316 23.353 22.0316 22.8843V17.7959C22.0316 17.3273 21.6564 16.9523 21.1873 16.9523ZM20.3297 22.0273H16.9392V18.6395H20.3297V22.0273ZM29.6569 16.9523H24.5645C24.0954 16.9523 23.7202 17.3273 23.7202 17.7959V22.8843C23.7202 23.353 24.0954 23.7279 24.5645 23.7279H29.6569C30.126 23.7279 30.5012 23.353 30.5012 22.8843V17.7959C30.5146 17.3273 30.126 16.9523 29.6569 16.9523ZM28.8127 22.0273H25.4221V18.6395H28.8127V22.0273ZM33.0608 23.7279H38.1533C38.6224 23.7279 38.9976 23.353 38.9976 22.8843V17.7959C38.9976 17.3273 38.6224 16.9523 38.1533 16.9523H33.0608C32.5918 16.9523 32.2166 17.3273 32.2166 17.7959V22.8843C32.2032 23.353 32.5918 23.7279 33.0608 23.7279ZM33.9051 18.6395H37.2956V22.0273H33.9051V18.6395ZM12.7044 25.4151H7.6119C7.14286 25.4151 6.76762 25.79 6.76762 26.2587V31.3471C6.76762 31.8158 7.14286 32.1907 7.6119 32.1907H12.7044C13.1734 32.1907 13.5486 31.8158 13.5486 31.3471V26.2587C13.5486 25.8034 13.1734 25.4151 12.7044 25.4151ZM11.8601 30.5035H8.45618V27.1157H11.8467V30.5035H11.8601ZM21.1873 25.4151H16.0949C15.6258 25.4151 15.2506 25.79 15.2506 26.2587V31.3471C15.2506 31.8158 15.6258 32.1907 16.0949 32.1907H21.1873C21.6564 32.1907 22.0316 31.8158 22.0316 31.3471V26.2587C22.0316 25.8034 21.6564 25.4151 21.1873 25.4151ZM20.3297 30.5035H16.9392V27.1157H20.3297V30.5035ZM29.6569 25.4151H24.5645C24.0954 25.4151 23.7202 25.79 23.7202 26.2587V31.3471C23.7202 31.8158 24.0954 32.1907 24.5645 32.1907H29.6569C30.126 32.1907 30.5012 31.8158 30.5012 31.3471V26.2587C30.5146 25.8034 30.126 25.4151 29.6569 25.4151ZM28.8127 30.5035H25.4221V27.1157H28.8127V30.5035ZM38.9976 31.3471V26.2587C38.9976 25.79 38.6224 25.4151 38.1533 25.4151H33.0608C32.5918 25.4151 32.2166 25.79 32.2166 26.2587V31.3471C32.2166 31.8158 32.5918 32.1907 33.0608 32.1907H38.1533C38.609 32.2041 38.9976 31.8158 38.9976 31.3471ZM37.2956 30.5035H33.9051V27.1157H37.2956V30.5035ZM12.7044 33.8913H7.6119C7.14286 33.8913 6.76762 34.2662 6.76762 34.7349V39.8232C6.76762 40.2919 7.14286 40.6669 7.6119 40.6669H12.7044C13.1734 40.6669 13.5486 40.2919 13.5486 39.8232V34.7349C13.5486 34.2796 13.1734 33.8913 12.7044 33.8913ZM11.8601 38.9797H8.45618V35.5919H11.8467V38.9797H11.8601ZM21.1873 33.8913H16.0949C15.6258 33.8913 15.2506 34.2662 15.2506 34.7349V39.8232C15.2506 40.2919 15.6258 40.6669 16.0949 40.6669H21.1873C21.6564 40.6669 22.0316 40.2919 22.0316 39.8232V34.7349C22.0316 34.2796 21.6564 33.8913 21.1873 33.8913ZM20.3297 38.9797H16.9392V35.5919H20.3297V38.9797ZM29.6569 33.8913H24.5645C24.0954 33.8913 23.7202 34.2662 23.7202 34.7349V39.8232C23.7202 40.2919 24.0954 40.6669 24.5645 40.6669H29.6569C30.126 40.6669 30.5012 40.2919 30.5012 39.8232V34.7349C30.5146 34.2796 30.126 33.8913 29.6569 33.8913ZM28.8127 38.9797H25.4221V35.5919H28.8127V38.9797ZM48.8609 37.3058C48.1104 36.0204 47.0383 34.9491 45.7518 34.1993V3.40118H38.9976V2.54419C38.9976 1.13819 37.8585 0 36.4514 0C35.0442 0 33.9051 1.13819 33.9051 2.54419V3.38779H32.2032V2.54419C32.2032 1.13819 31.0641 0 29.6569 0C28.2498 0 27.1107 1.13819 27.1107 2.54419V3.38779H25.4087V2.54419C25.4087 1.13819 24.2696 0 22.8625 0C21.4554 0 20.3163 1.13819 20.3163 2.54419V3.38779H18.6143V2.54419C18.6143 1.13819 17.4752 0 16.0681 0C14.6609 0 13.5218 1.13819 13.5218 2.54419V3.38779H11.8601V2.54419C11.8601 1.13819 10.721 0 9.31386 0C7.90673 0 6.76762 1.13819 6.76762 2.54419V3.38779H0V45.7552H34.1865C36.5184 49.8125 41.7046 51.1918 45.7652 48.8618C49.8124 46.5319 51.2061 41.3498 48.8609 37.3058ZM35.5937 2.54419C35.5937 2.07552 35.9689 1.70059 36.438 1.70059C36.907 1.70059 37.2822 2.07552 37.2822 2.54419V5.93198C37.2822 6.40064 36.907 6.77558 36.438 6.77558C35.9689 6.77558 35.5937 6.40064 35.5937 5.93198V2.54419ZM28.8127 2.54419C28.8127 2.07552 29.1879 1.70059 29.6569 1.70059C30.126 1.70059 30.5012 2.07552 30.5012 2.54419V5.93198C30.5012 6.40064 30.126 6.77558 29.6569 6.77558C29.1879 6.77558 28.8127 6.40064 28.8127 5.93198V2.54419ZM22.0316 2.54419C22.0316 2.07552 22.4069 1.70059 22.8759 1.70059C23.3449 1.70059 23.7202 2.07552 23.7202 2.54419V5.93198C23.7202 6.40064 23.3449 6.77558 22.8759 6.77558C22.4069 6.77558 22.0316 6.40064 22.0316 5.93198V2.54419ZM15.2506 2.54419C15.2506 2.07552 15.6258 1.70059 16.0949 1.70059C16.5639 1.70059 16.9392 2.07552 16.9392 2.54419V5.93198C16.9392 6.40064 16.5639 6.77558 16.0949 6.77558C15.6258 6.77558 15.2506 6.40064 15.2506 5.93198V2.54419ZM8.45618 2.54419C8.45618 2.07552 8.83141 1.70059 9.30046 1.70059C9.7695 1.70059 10.1447 2.07552 10.1447 2.54419V5.93198C10.1447 6.40064 9.7695 6.77558 9.30046 6.77558C8.83141 6.77558 8.45618 6.40064 8.45618 5.93198V2.54419ZM1.70196 5.08838H6.76762V5.93198C6.76762 7.33798 7.90673 8.47617 9.31386 8.47617C10.721 8.47617 11.8601 7.33798 11.8601 5.93198V5.08838H13.562V5.93198C13.562 7.33798 14.7012 8.47617 16.1083 8.47617C17.5154 8.47617 18.6545 7.33798 18.6545 5.93198V5.08838H20.3565V5.93198C20.3565 7.33798 21.4956 8.47617 22.9027 8.47617C24.3098 8.47617 25.4489 7.33798 25.4489 5.93198V5.08838H27.1509V5.93198C27.1509 7.33798 28.29 8.47617 29.6971 8.47617C31.1043 8.47617 32.2434 7.33798 32.2434 5.93198V5.08838H33.9051V5.93198C33.9051 7.33798 35.0442 8.47617 36.4514 8.47617C37.8585 8.47617 38.9976 7.33798 38.9976 5.93198V5.08838H44.0633V11.864H1.70196V5.08838ZM33.4227 38.9797C32.9 40.6401 32.9 42.4076 33.4227 44.068H1.70196V13.5645H44.0633V33.4494C39.5872 32.03 34.8298 34.5206 33.4227 38.9797ZM41.517 48.2994C36.7864 48.2994 33.1815 43.4521 35.4061 38.4574C35.9957 37.1184 37.108 36.0204 38.4347 35.4312C43.4334 33.195 48.2846 36.797 48.2846 41.5372C48.298 45.2598 45.256 48.2994 41.517 48.2994ZM44.8673 39.1671L41.2222 42.0862L39.212 40.0777C38.877 39.7429 38.3409 39.7429 38.0059 40.0777C37.6709 40.4124 37.6709 40.9481 38.0059 41.2828L40.5521 43.827C40.8604 44.135 41.3428 44.1618 41.6778 43.894L45.9126 40.5062C46.2745 40.2116 46.3415 39.676 46.0466 39.3144C45.7786 38.9261 45.2426 38.8725 44.8673 39.1671Z" fill="#CECECE"/>
</g>
<defs>
<clipPath id="clip0">
<rect width="50" height="50" fill="white"/>
</clipPath>
</defs>
</svg>
