<svg width="45" height="50" viewBox="0 0 45 50" fill="none" xmlns="http://www.w3.org/2000/svg">
<path d="M32.5 21.6667C25.5938 21.6667 20 27.2604 20 34.1667C20 41.0729 25.5938 46.6667 32.5 46.6667C39.4062 46.6667 45 41.0729 45 34.1667C44.9896 27.2708 39.3958 21.6771 32.5 21.6667ZM39.1667 42.6875C38.6458 43.0937 38.0833 43.4583 37.5 43.7708V41.6667H35.8333V44.4688C33.6667 45.1771 31.3333 45.1771 29.1667 44.4688V41.6667H27.5V43.7708C26.9167 43.4583 26.3542 43.0937 25.8333 42.6875V41.6875C25.8333 40.5729 26.5729 39.5938 27.6458 39.2812L29.4583 38.7604L32 40.6667C32.2917 40.8854 32.7083 40.8854 33 40.6667L35.5417 38.7604L37.3542 39.2812C38.4271 39.5938 39.1667 40.5729 39.1667 41.6875V42.6875ZM30 31.6667H30.1562C31.3125 31.6667 32.4375 31.3229 33.3958 30.6875L33.8542 30.3854C34.1146 30.8438 34.5208 31.2188 35.0104 31.4271V32.5C35.0104 33.8854 33.8958 35 32.5104 35C31.125 35 30.0104 33.8854 30.0104 32.5V31.6667H30ZM29.1667 30C29.1562 28.1562 30.6458 26.6667 32.4896 26.6562C34.3333 26.6458 35.8333 28.1354 35.8333 29.9792C35.5938 29.9167 35.3958 29.7604 35.2812 29.5417L34.9062 28.8021C34.8021 28.5833 34.6042 28.4271 34.375 28.3646C34.1458 28.3021 33.8958 28.3437 33.6979 28.4792L32.4583 29.3021C31.7708 29.7604 30.9687 30 30.1458 30H29.1667ZM33.625 38.1146L32.5 38.9583L31.375 38.1146C31.5521 37.9583 31.6562 37.7396 31.6667 37.5V36.5833C31.9375 36.6354 32.2188 36.6667 32.5 36.6667C32.7812 36.6667 33.0625 36.6354 33.3333 36.5833V37.5C33.3333 37.7396 33.4375 37.9583 33.625 38.1146ZM40.7917 41.125C40.5729 39.4896 39.4062 38.1354 37.8125 37.6667L35 36.8646V35.8021C36.0417 35.0208 36.6667 33.7917 36.6667 32.4896V31.6562C37.125 31.6562 37.5 31.2812 37.5 30.8229V29.9896C37.5 27.2292 35.2604 24.9896 32.5 24.9896C29.7396 24.9896 27.5 27.2292 27.5 29.9896V30.8229C27.5 31.2812 27.875 31.6562 28.3333 31.6562V32.4896C28.3333 33.7917 28.9583 35.0208 30 35.8021V36.875L27.1875 37.6771C25.5938 38.1354 24.4375 39.4896 24.2083 41.1354C20.5104 36.7396 20.8854 30.2292 25.0521 26.2812C29.2292 22.3333 35.75 22.3333 39.9271 26.2812C44.1146 30.2188 44.4896 36.7396 40.7917 41.125ZM24.1667 35H25.8333V33.3333H24.1667V35ZM39.1667 33.3333V35H40.8333V33.3333H39.1667ZM34.1667 48.3333H4.16667C2.78125 48.3333 1.66667 47.2188 1.66667 45.8333V4.16667C1.66667 2.78125 2.78125 1.66667 4.16667 1.66667H27.5V9.16667C27.5 9.5 27.6979 9.8125 28.0104 9.9375C28.3229 10.0625 28.6771 9.98958 28.9167 9.76042L30.8333 7.84375L32.7396 9.75C32.9792 9.98958 33.3333 10.0625 33.6458 9.92708C33.9583 9.80208 34.1562 9.48958 34.1562 9.15625V1.66667C35.5417 1.66667 36.6562 2.78125 36.6562 4.16667V20.8333H38.3229V4.16667C38.3229 1.86458 36.4583 0 34.1562 0H4.16667C1.86458 0 0 1.86458 0 4.16667V45.8333C0 48.1354 1.86458 50 4.16667 50H34.1667C35.3646 50 36.5 49.4896 37.2917 48.5938L36.0417 47.4896C35.5625 48.0208 34.8854 48.3333 34.1667 48.3333ZM29.1667 1.66667H32.5V7.15625L31.4271 6.08333C31.1042 5.76042 30.5729 5.76042 30.25 6.08333L29.1667 7.15625V1.66667ZM5 5V6.66667H8.33333V5H5ZM18.3333 5H10V6.66667H18.3333V5ZM5 10H18.3333V8.33333H5V10ZM26.6667 15H5V16.6667H26.6667V15ZM28.3333 16.6667H33.3333V15H28.3333V16.6667ZM21.6667 20H5V21.6667H21.6667V20ZM18.3333 25H5V26.6667H18.3333V25ZM16.6667 30H5V31.6667H16.6667V30ZM13.3333 38.3333H5V40H13.3333V38.3333ZM5 43.3333H13.3333V41.6667H5V43.3333Z" fill="#CECECE"/>
</svg>
