<svg width="50" height="50" viewBox="0 0 50 50" fill="none" xmlns="http://www.w3.org/2000/svg">
<path d="M10.355 15.8824C10.355 12.9412 7.98817 10.8824 5.32544 10.8824C2.36686 10.8824 0 13.2353 0 15.8824C0 18.5294 2.36686 20.8824 5.02959 20.8824C7.69231 20.8824 10.355 18.8235 10.355 15.8824ZM2.36686 15.8824C2.36686 14.4118 3.5503 13.2353 5.02959 13.2353C6.50888 13.2353 7.69231 14.4118 7.69231 15.8824C7.69231 17.3529 6.50888 18.5294 5.02959 18.5294C3.5503 18.8235 2.36686 17.6471 2.36686 15.8824ZM41.4201 28.8235C37.8698 31.7647 32.5444 34.7059 24.8521 34.7059C17.4556 34.7059 12.1302 31.7647 8.28402 28.8235V25H1.77515V50H8.57988V32.0588C12.426 35 17.7515 37.3529 25.1479 37.3529C32.5444 37.3529 37.8698 35 41.716 32.0588V50H48.5207V25H41.4201V28.8235ZM6.21302 47.6471H4.14201V27.3529H6.21302V47.6471ZM43.787 27.3529H45.858V47.3529H43.787V27.3529ZM44.9704 10.8824C42.0118 10.8824 39.9408 13.2353 39.9408 15.8824C39.9408 18.5294 42.3077 20.8824 44.9704 20.8824C47.929 20.8824 50 18.5294 50 15.8824C50 13.2353 47.6331 10.8824 44.9704 10.8824ZM44.9704 18.8235C43.4911 18.8235 42.3077 17.6471 42.3077 16.1765C42.3077 14.7059 43.4911 13.5294 44.9704 13.5294C46.4497 13.5294 47.6331 14.7059 47.6331 16.1765C47.6331 17.6471 46.4497 18.8235 44.9704 18.8235ZM14.7929 8.23529H16.2722V4.70588H19.5266V3.23529H16.2722V0H14.7929V3.23529H11.5385V4.70588H14.7929V8.23529ZM34.0237 14.4118H35.503V10.8824H38.7574V9.41177H35.503V6.17647H34.0237V9.41177H30.7692V10.8824H34.0237V14.4118ZM23.9645 29.7059H26.3314V24.7059H31.3609V22.3529H26.3314V17.3529H23.9645V22.3529H18.9349V24.7059H23.9645V29.7059Z" fill="#CFCECE"/>
</svg>
