<svg width="50" height="46" viewBox="0 0 50 46" fill="none" xmlns="http://www.w3.org/2000/svg">
<path d="M45.7129 13.3752H43.6035V12.0122L44.9219 10.5609C45.6055 9.80588 45.9766 8.8351 45.9766 7.81529V4.36362C45.9766 1.95137 44.0234 0 41.6211 0H39.6191C37.2168 0 35.2734 1.96118 35.2734 4.36362V7.80548C35.2734 8.82529 35.6445 9.79608 36.3281 10.5511L37.6465 12.0024V13.3654H35.5469C33.5059 13.3654 31.7871 14.8167 31.3672 16.7386C31.1523 16.7092 30.9375 16.6896 30.7129 16.6896H28.2422V15.0226L29.7461 13.3556C30.498 12.5221 30.9082 11.4435 30.9082 10.3256V6.46208C30.9082 3.80468 28.75 1.63758 26.1035 1.63758C25.6836 1.63758 25.3516 1.97098 25.3516 2.39264C25.3516 2.81429 25.6836 3.14769 26.1035 3.14769C27.9199 3.14769 29.4043 4.63818 29.4043 6.46208V10.3452C29.4043 11.0905 29.1309 11.8063 28.6328 12.3652L27.0801 14.0812C26.875 14.2185 26.7383 14.4539 26.7383 14.7186V17.4643C26.7383 17.8859 27.0703 18.2193 27.4902 18.2193H30.7031C32.4805 18.2193 33.9258 19.6706 33.9258 21.4553V26.1915H16.0254V21.4553C16.0254 20.0628 16.9043 18.8763 18.1348 18.4154C18.1934 18.4056 18.252 18.386 18.3008 18.3566C18.6035 18.2586 18.916 18.2095 19.248 18.2095H22.4609C22.8809 18.2095 23.2129 17.8761 23.2129 17.4545V14.7088C23.2129 14.4441 23.0762 14.2087 22.8711 14.0714L21.3184 12.3554C20.8203 11.8063 20.5469 11.0905 20.5469 10.3354V6.46208C20.5469 4.63818 22.0312 3.14769 23.8477 3.14769C24.2676 3.14769 24.5996 2.81429 24.5996 2.39264C24.5996 1.97098 24.2676 1.63758 23.8477 1.63758C21.2012 1.63758 19.043 3.80468 19.043 6.46208V10.3452C19.043 11.4729 19.4531 12.5417 20.2051 13.3752L21.709 15.0422V16.7092H19.2383C19.0234 16.7092 18.8184 16.7288 18.623 16.7484C18.2031 14.8265 16.4844 13.3752 14.4434 13.3752H12.334V12.0122L13.6523 10.5609C14.3359 9.80588 14.707 8.8351 14.707 7.81529V4.36362C14.707 1.95137 12.7539 0 10.3516 0H8.36914C5.9668 0 4.01367 1.96118 4.01367 4.36362V7.80548C4.01367 8.82529 4.38477 9.79608 5.06836 10.5511L6.38672 12.0024V13.3654H4.28711C1.92383 13.3752 0 15.307 0 17.6702V22.5535C0 22.9752 0.332031 23.3086 0.751953 23.3086H12.4512C12.8711 23.3086 13.2031 22.9752 13.2031 22.5535C13.2031 22.1319 12.8711 21.7985 12.4512 21.7985H1.50391V17.68C1.50391 16.1405 2.75391 14.8853 4.28711 14.8853H7.14844C7.56836 14.8853 7.90039 14.5519 7.90039 14.1303V11.6886C7.90039 11.4239 7.76367 11.1983 7.56836 11.061L6.20117 9.55093C5.77148 9.07044 5.53711 8.46248 5.53711 7.81529V4.36362C5.53711 2.78487 6.81641 1.5003 8.38867 1.5003H10.3906C11.9629 1.5003 13.2422 2.78487 13.2422 4.36362V7.80548C13.2422 8.45267 13.0078 9.06064 12.5781 9.54113L11.2109 11.0512C11.0059 11.1885 10.8789 11.414 10.8789 11.6788V14.1205C10.8789 14.5421 11.2109 14.8755 11.6309 14.8755H14.4531C15.8203 14.8755 16.9531 15.8659 17.1875 17.1701C15.6152 17.9448 14.5215 19.5627 14.5215 21.4357V26.927C14.5215 27.3486 14.8535 27.682 15.2734 27.682H34.6777C35.0977 27.682 35.4297 27.3486 35.4297 26.927V21.4357C35.4297 19.5725 34.3555 17.9644 32.8027 17.1799C33.0273 15.8659 34.1699 14.8657 35.5371 14.8657H38.3984C38.8184 14.8657 39.1504 14.5323 39.1504 14.1107V11.669C39.1504 11.4042 39.0137 11.1787 38.8184 11.0414L37.4512 9.53132C37.0215 9.05083 36.7871 8.44287 36.7871 7.79568V4.36362C36.7871 2.78487 38.0664 1.5003 39.6387 1.5003H41.6406C43.2129 1.5003 44.4922 2.78487 44.4922 4.36362V7.80548C44.4922 8.45267 44.2578 9.06064 43.8281 9.54113L42.4609 11.0512C42.2559 11.1885 42.1289 11.414 42.1289 11.6788V14.1205C42.1289 14.5421 42.4609 14.8755 42.8809 14.8755H45.7422C47.2754 14.8755 48.5254 16.1307 48.5254 17.6702V21.7887H37.6855C37.2656 21.7887 36.9336 22.1221 36.9336 22.5437C36.9336 22.9654 37.2656 23.2988 37.6855 23.2988H49.248C49.668 23.2988 50 22.9654 50 22.5437V17.6702C50 15.307 48.0762 13.3752 45.7129 13.3752ZM31.9629 36.7524L27.8613 36.0758L25.9473 32.3594C25.8203 32.1045 25.5566 31.9476 25.2832 31.9476C25.0098 31.9476 24.7461 32.1045 24.6191 32.3594L22.7051 36.0758L18.6035 36.7524C18.3301 36.8015 18.0957 36.9976 18.0078 37.2624C17.9199 37.5271 17.9883 37.8213 18.1836 38.0272L21.1133 40.9984L20.4883 45.1267C20.4492 45.4012 20.5664 45.6856 20.791 45.8523C20.918 45.9504 21.0742 45.9994 21.2305 45.9994C21.3477 45.9994 21.4648 45.97 21.5723 45.921L25.293 44.048L29.0137 45.921C29.2676 46.0484 29.5703 46.019 29.7949 45.8523C30.0195 45.6856 30.1367 45.411 30.0977 45.1267L29.4727 40.9984L32.4023 38.0272C32.5977 37.8311 32.666 37.5271 32.5781 37.2624C32.4707 36.9976 32.2461 36.7917 31.9629 36.7524ZM28.1152 40.2041C27.9492 40.3708 27.8711 40.616 27.9102 40.8513L28.3789 43.9107L25.625 42.5183C25.4102 42.4104 25.166 42.4104 24.9512 42.5183L22.1973 43.9107L22.666 40.8513C22.7051 40.616 22.627 40.3806 22.4609 40.2041L20.293 37.9978L23.3398 37.4977C23.5742 37.4585 23.7793 37.3114 23.8867 37.0957L25.3027 34.3402L26.7188 37.0957C26.8262 37.3114 27.0313 37.4585 27.2656 37.4977L30.3125 37.9978L28.1152 40.2041ZM48.418 31.2023L44.3164 30.5257L42.4023 26.8093C42.2754 26.5543 42.0117 26.3974 41.7383 26.3974C41.4551 26.3974 41.2012 26.5543 41.0742 26.8093L39.1602 30.5257L35.0586 31.2023C34.7852 31.2514 34.5508 31.4475 34.4629 31.7122C34.375 31.977 34.4434 32.2712 34.6387 32.4771L37.5684 35.4483L36.9434 39.5765C36.9043 39.8511 37.0215 40.1355 37.2461 40.3022C37.4707 40.4689 37.7734 40.4885 38.0273 40.3708L41.748 38.4979L45.4688 40.3708C45.5762 40.4199 45.6934 40.4493 45.8105 40.4493C45.9668 40.4493 46.123 40.4002 46.25 40.3022C46.4746 40.1355 46.5918 39.8609 46.5527 39.5765L45.9277 35.4483L48.8574 32.4771C49.0527 32.281 49.1211 31.977 49.0332 31.7122C48.9258 31.4475 48.7012 31.2514 48.418 31.2023ZM44.5703 34.654C44.4043 34.8207 44.3262 35.0658 44.3652 35.3012L44.834 38.3606L42.0703 36.9682C41.9629 36.9192 41.8457 36.8897 41.7285 36.8897C41.6113 36.8897 41.4941 36.9192 41.3867 36.9682L38.6328 38.3606L39.1016 35.3012C39.1406 35.0658 39.0625 34.8305 38.8965 34.654L36.7285 32.4575L39.7754 31.9574C40.0098 31.9181 40.2148 31.7711 40.3223 31.5553L41.7383 28.7999L43.1543 31.5553C43.2617 31.7711 43.4668 31.9181 43.7012 31.9574L46.748 32.4575L44.5703 34.654ZM15.5078 31.2023L11.4062 30.5257L9.49219 26.8093C9.36523 26.5543 9.10156 26.3974 8.82812 26.3974C8.54492 26.3974 8.29102 26.5543 8.16406 26.8093L6.25 30.5257L2.14844 31.2023C1.875 31.2514 1.64062 31.4475 1.55273 31.7122C1.46484 31.977 1.5332 32.2712 1.72852 32.4771L4.6582 35.4483L4.0332 39.5765C3.99414 39.8511 4.11133 40.1355 4.33594 40.3022C4.56055 40.4689 4.86328 40.4885 5.11719 40.3708L8.83789 38.4979L12.5586 40.3708C12.666 40.4199 12.7832 40.4493 12.9004 40.4493C13.0566 40.4493 13.2129 40.4002 13.3398 40.3022C13.5645 40.1355 13.6816 39.8609 13.6426 39.5765L13.0176 35.4483L15.9473 32.4771C16.1426 32.281 16.2109 31.977 16.123 31.7122C16.0156 31.4475 15.791 31.2514 15.5078 31.2023ZM11.6602 34.654C11.4941 34.8207 11.416 35.0658 11.4551 35.3012L11.9238 38.3606L9.16992 36.9682C9.0625 36.9192 8.94531 36.8897 8.82812 36.8897C8.71094 36.8897 8.59375 36.9192 8.48633 36.9682L5.73242 38.3606L6.20117 35.3012C6.24023 35.0658 6.16211 34.8305 5.99609 34.654L3.82812 32.4575L6.875 31.9574C7.10938 31.9181 7.31445 31.7711 7.42188 31.5553L8.83789 28.7999L10.2539 31.5553C10.3613 31.7711 10.5664 31.9181 10.8008 31.9574L13.8477 32.4575L11.6602 34.654Z" fill="#CECECE"/>
</svg>
