<svg width="12" height="15" viewBox="0 0 12 15" fill="none" xmlns="http://www.w3.org/2000/svg">
<path d="M5.45312 14.4766C5.5625 14.668 5.75391 14.75 6 14.75C6.21875 14.75 6.41016 14.668 6.54688 14.4766L8.37891 11.8516C9.28125 10.5391 9.88281 9.66406 10.1836 9.19922C10.5938 8.54297 10.8672 7.99609 11.0312 7.55859C11.168 7.12109 11.25 6.60156 11.25 6C11.25 5.07031 11.0039 4.19531 10.5391 3.375C10.0469 2.58203 9.41797 1.95312 8.625 1.46094C7.80469 0.996094 6.92969 0.75 6 0.75C5.04297 0.75 4.16797 0.996094 3.375 1.46094C2.55469 1.95312 1.92578 2.58203 1.46094 3.375C0.96875 4.19531 0.75 5.07031 0.75 6C0.75 6.60156 0.804688 7.12109 0.96875 7.55859C1.10547 7.99609 1.37891 8.54297 1.81641 9.19922C2.08984 9.66406 2.69141 10.5391 3.62109 11.8516C4.35938 12.918 4.96094 13.793 5.45312 14.4766ZM6 8.1875C5.39844 8.1875 4.87891 7.99609 4.44141 7.55859C4.00391 7.12109 3.8125 6.60156 3.8125 6C3.8125 5.39844 4.00391 4.90625 4.44141 4.46875C4.87891 4.03125 5.39844 3.8125 6 3.8125C6.60156 3.8125 7.09375 4.03125 7.53125 4.46875C7.96875 4.90625 8.1875 5.39844 8.1875 6C8.1875 6.60156 7.96875 7.12109 7.53125 7.55859C7.09375 7.99609 6.60156 8.1875 6 8.1875Z" fill="black"/>
</svg>
