<svg width="14" height="15" viewBox="0 0 14 15" fill="none" xmlns="http://www.w3.org/2000/svg">
<path d="M14 13.4375V6.24609C14 5.80859 13.8359 5.48047 13.5078 5.20703C12.7422 4.63281 11.2383 3.51172 8.99609 1.87109L8.75 1.67969C8.36719 1.40625 8.09375 1.1875 7.875 1.07812C7.51953 0.859375 7.21875 0.75 7 0.75C6.75391 0.75 6.45312 0.859375 6.125 1.07812C5.90625 1.1875 5.60547 1.40625 5.25 1.67969L5.00391 1.87109C2.73438 3.51172 1.23047 4.63281 0.492188 5.20703C0.164062 5.48047 0 5.80859 0 6.24609V13.4375C0 13.8203 0.109375 14.1211 0.382812 14.3672C0.628906 14.6406 0.929688 14.75 1.3125 14.75H12.6875C13.043 14.75 13.3438 14.6406 13.6172 14.3672C13.8633 14.1211 14 13.8203 14 13.4375ZM12.1953 8.05078L12.4414 8.43359C12.4688 8.48828 12.4688 8.54297 12.4688 8.59766C12.4688 8.65234 12.4414 8.70703 12.4141 8.73438L9.24219 11.0312C8.80469 11.3594 8.47656 11.6055 8.20312 11.7422C7.76562 12.0156 7.35547 12.125 7 12.125C6.61719 12.125 6.23438 12.0156 5.79688 11.7422C5.52344 11.6055 5.16797 11.3594 4.75781 11.0312L1.58594 8.73438C1.53125 8.70703 1.50391 8.65234 1.50391 8.59766C1.50391 8.54297 1.50391 8.48828 1.55859 8.43359L1.80469 8.05078C1.83203 8.02344 1.88672 7.99609 1.94141 7.96875C1.99609 7.96875 2.05078 7.96875 2.10547 7.99609L5.25 10.3203C5.60547 10.6211 5.90625 10.8125 6.125 10.9219C6.45312 11.1406 6.75391 11.25 7 11.25C7.21875 11.25 7.51953 11.1406 7.875 10.9219C8.09375 10.8125 8.36719 10.6211 8.75 10.3203L11.8945 7.99609C11.9492 7.96875 12.0039 7.96875 12.0586 7.96875C12.1133 7.99609 12.1406 8.02344 12.1953 8.05078Z" fill="black"/>
</svg>
