<svg width="14" height="15" viewBox="0 0 14 15" fill="none" xmlns="http://www.w3.org/2000/svg">
<path d="M13.4806 1.43358C13.6447 1.46092 13.754 1.54295 13.8634 1.65233C13.9454 1.78905 14.0001 1.92577 14.0001 2.06248C14.0001 4.35936 13.4259 6.49217 12.2775 8.46092C11.129 10.375 9.62513 11.9062 7.71107 13.0273C5.74232 14.1758 3.60951 14.75 1.31263 14.75C1.14857 14.75 1.01185 14.7226 0.902475 14.6133C0.765756 14.5312 0.683725 14.3945 0.683725 14.2305L0.0274751 11.3867C-0.0272124 11.25 0.000131361 11.1133 0.0821626 10.9492C0.13685 10.8125 0.246225 10.7031 0.410288 10.6484L3.47279 9.33592C3.58216 9.28123 3.71888 9.28123 3.88294 9.30858C4.01966 9.33592 4.12904 9.41795 4.23841 9.52733L5.57826 11.168C6.64466 10.6758 7.60169 10.0195 8.42201 9.17186C9.24232 8.35155 9.92591 7.39452 10.4181 6.32811L8.77748 4.96092C8.6681 4.87889 8.58607 4.76952 8.55873 4.6328C8.50404 4.49608 8.53138 4.35936 8.58607 4.1953L9.89857 1.1328C9.95326 1.02342 10.0353 0.914047 10.1994 0.832016C10.3361 0.777329 10.4728 0.749985 10.6369 0.777329L13.4806 1.43358Z" fill="black"/>
</svg>
