<svg width="50" height="50" viewBox="0 0 50 50" fill="none" xmlns="http://www.w3.org/2000/svg">
<path d="M8.20442 25.5011L19.1436 14.4766L24.2265 19.5991C24.6409 20.0167 25.3315 20.0445 25.7735 19.5991L41.4641 3.75835V6.98775C41.4641 7.60022 41.9613 8.10134 42.5691 8.10134C43.1768 8.10134 43.674 7.60022 43.674 6.98775L43.5635 0.612472L43.5083 0.556793L43.453 0.445434L43.3425 0.334076C43.3149 0.306236 43.2873 0.278396 43.2597 0.250557C43.232 0.222717 43.2044 0.222717 43.1768 0.194877L42.9006 0.0556793L42.8453 0.0278396H42.7901L42.7072 0C42.6243 0 42.5967 0 42.5691 0H36.7127C36.105 0 35.6077 0.501114 35.6077 1.11359C35.6077 1.72606 36.105 2.22717 36.7127 2.22717H39.9171L25 17.2606L19.9171 12.1381C19.6961 11.9154 19.4199 11.804 19.1436 11.804C18.8674 11.804 18.5912 11.9154 18.3702 12.1381L6.65746 23.9421C6.43646 24.1648 6.32597 24.4154 6.32597 24.7216C6.32597 25.0278 6.43646 25.2784 6.65746 25.5011C7.07182 25.9187 7.79006 25.9187 8.20442 25.5011ZM0 48.5245C0 49.3318 0.662983 50 1.46409 50H13.1768C13.9779 50 14.6409 49.3318 14.6409 48.5245V46.4644H0V48.5245ZM13.1768 39.9777H1.46409C0.662983 39.9777 0 40.6459 0 41.4532V43.5134H14.6409V41.4532C14.6409 40.618 13.9779 39.9777 13.1768 39.9777ZM17.6796 48.5245C17.6796 49.3318 18.3425 50 19.1436 50H30.8564C31.6575 50 32.3204 49.3318 32.3204 48.5245V46.4644H17.6796V48.5245ZM35.3315 43.5134H49.9724V39.9777H35.3315V43.5134ZM48.5359 20.49H36.8232C36.0221 20.49 35.3591 21.1581 35.3591 21.9655V24.0256H50V21.9655C50 21.1581 49.337 20.49 48.5359 20.49ZM35.3315 30.5122H49.9724V26.9766H35.3315V30.5122ZM35.3315 37.0267H49.9724V33.4911H35.3315V37.0267ZM35.3315 48.5245C35.3315 49.3318 35.9945 50 36.7956 50H48.5083C49.3094 50 49.9724 49.3318 49.9724 48.5245V46.4644H35.3315V48.5245V48.5245ZM17.6796 43.5134H32.3204V39.9777H17.6796V43.5134ZM30.8564 33.4632H19.1436C18.3425 33.4632 17.6796 34.1314 17.6796 34.9388V36.9989H32.3204V34.9388C32.3204 34.1314 31.6575 33.4632 30.8564 33.4632Z" fill="#CECECE"/>
</svg>
