<svg width="50" height="50" viewBox="0 0 50 50" fill="none" xmlns="http://www.w3.org/2000/svg">
<g clip-path="url(#clip0)">
<path d="M29.8849 33.7863H28.9093V21.0918C28.9093 20.5575 28.4679 20.1161 27.9337 20.1161H20.1172C19.5829 20.1161 19.1416 20.5575 19.1416 21.0918V24.9942C19.1416 25.5285 19.5829 25.9698 20.1172 25.9698H21.0928V33.7863H20.1172C19.5829 33.7863 19.1416 34.2276 19.1416 34.7619V38.676C19.1416 39.2102 19.5829 39.6516 20.1172 39.6516H29.8849C30.4191 39.6516 30.8605 39.2102 30.8605 38.676V34.7735C30.8605 34.2276 30.4191 33.7863 29.8849 33.7863ZM28.9093 37.7003H21.0928V35.7491H22.0684C22.6027 35.7491 23.044 35.3078 23.044 34.7735V25.0058C23.044 24.4715 22.6027 24.0302 22.0684 24.0302H21.0928V22.0674H26.9464V34.7619C26.9464 35.2962 27.3878 35.7375 27.9221 35.7375H28.8977V37.7003H28.9093ZM25.0068 18.1649C27.1555 18.1649 28.9093 16.4111 28.9093 14.2625C28.9093 12.1138 27.1555 10.36 25.0068 10.36C22.8582 10.36 21.1044 12.1138 21.1044 14.2625C21.1044 16.4111 22.8466 18.1649 25.0068 18.1649ZM25.0068 12.2997C26.087 12.2997 26.9581 13.1707 26.9581 14.2509C26.9581 15.331 26.087 16.2021 25.0068 16.2021C23.9267 16.2021 23.0556 15.331 23.0556 14.2509C23.0556 13.1707 23.9267 12.2997 25.0068 12.2997ZM25.0068 0C11.5225 0 0.00102752 11.5099 0.00102752 25.0058C0.00102752 29.6167 1.32507 34.518 3.55503 38.223L0.0474851 48.7108C-0.0686589 49.0592 0.0242563 49.4541 0.279773 49.7096C0.546904 49.9768 0.93018 50.0581 1.27861 49.9419L11.778 46.446C15.483 48.676 20.3843 50 24.9952 50C38.4679 50 50.001 38.4901 50.001 24.9942C50.001 11.5215 38.4912 0 25.0068 0ZM25.0068 48.0488C20.5817 48.0488 15.8895 46.748 12.4284 44.5528C12.1845 44.4019 11.8826 44.3554 11.5922 44.4483L2.52135 47.4681L5.5411 38.3972C5.63401 38.1185 5.59917 37.8165 5.43657 37.561C3.25306 34.1115 1.94063 29.4077 1.94063 24.9826C1.94063 12.4855 12.4981 1.93961 24.9836 1.93961C37.4691 1.93961 48.0266 12.4971 48.0266 24.9826C48.0266 37.4681 37.4923 48.0488 25.0068 48.0488Z" fill="#CECECE"/>
</g>
<defs>
<clipPath id="clip0">
<rect width="50" height="50" fill="white"/>
</clipPath>
</defs>
</svg>
