<svg width="50" height="50" viewBox="0 0 50 50" fill="none" xmlns="http://www.w3.org/2000/svg">
<path d="M31.5214 5.75916C24.5149 5.75916 18.802 11.4721 18.802 18.4786C18.802 21.9587 20.2649 25.3311 22.7903 27.7179C22.8365 27.7795 22.8673 27.8103 22.8981 27.8257C25.2695 29.9969 28.3184 31.1826 31.506 31.1826C34.6936 31.1826 37.7425 29.9969 40.0831 27.8411C40.1447 27.7949 40.1755 27.7641 40.2063 27.7333C42.7625 25.3311 44.21 21.9587 44.21 18.4786C44.2408 11.4721 38.5433 5.75916 31.5214 5.75916ZM38.2815 27.0249C36.3412 28.5648 34.0006 29.3656 31.5368 29.3656C29.073 29.3656 26.7324 28.5494 24.7921 27.0249L24.5919 26.871L24.6997 26.6554C26.0394 24.13 28.6572 22.5593 31.5368 22.5593C34.4164 22.5593 37.0342 24.13 38.3739 26.6554L38.4817 26.871L38.2815 27.0249ZM28.688 17.8934V16.9541C28.688 15.3834 29.9661 14.1207 31.5214 14.1207C33.0921 14.1207 34.3548 15.3988 34.3548 16.9541V17.8934C34.3548 19.4641 33.0767 20.7268 31.5214 20.7268C29.9661 20.7268 28.688 19.4641 28.688 17.8934ZM40.0985 25.2079L39.8368 25.5467L39.6058 25.1771C38.5433 23.4678 36.988 22.1743 35.1401 21.4352L34.7552 21.2812L35.0323 20.9578C35.7715 20.1109 36.1872 19.0176 36.1872 17.8934V16.9541C36.1872 14.3979 34.093 12.3037 31.5368 12.3037C28.9806 12.3037 26.8864 14.3825 26.8864 16.9541V17.8934C26.8864 19.0176 27.3021 20.1109 28.0413 20.9578L28.3184 21.2812L27.9335 21.4352C26.0856 22.1897 24.5457 23.4832 23.4678 25.1771L23.2368 25.5467L22.9751 25.2079C21.4352 23.2676 20.6344 20.9424 20.6344 18.4786C20.6344 12.4577 25.5159 7.57622 31.5368 7.57622C37.5577 7.57622 42.4392 12.4577 42.4392 18.4786C42.4238 20.9424 41.623 23.2676 40.0985 25.2079ZM31.5214 0C21.3428 0 13.0428 8.28457 13.0428 18.4786C13.0428 21.7739 13.9513 25.0385 15.6606 27.9027L15.7838 28.1029L15.6144 28.2723L1.2781 42.5624C0.461965 43.3785 0 44.4718 0 45.6421C0 46.8124 0.446566 47.9058 1.2781 48.7219C2.10964 49.5534 3.20296 50 4.35787 50C5.51278 50 6.6215 49.5534 7.43763 48.7219L21.9125 34.247L22.1127 34.3702C24.9615 36.0641 28.2107 36.9572 31.5214 36.9572C41.7 36.9572 50 28.6726 50 18.4786C50 8.28457 41.7154 0 31.5214 0ZM20.1571 33.4463L6.15953 47.4438C5.66677 47.9366 5.00462 48.1983 4.35787 48.1983C3.71112 48.1983 3.04897 47.952 2.55621 47.4438C2.07884 46.9664 1.80166 46.3197 1.80166 45.6421C1.80166 44.9646 2.06344 44.3178 2.55621 43.8405L16.8309 29.6273L17.0465 29.8891C17.9858 31.0748 19.0176 32.1066 20.1417 32.9843L20.4034 33.1999L20.1571 33.4463ZM31.5214 35.1247C22.3283 35.1247 14.8599 27.6563 14.8599 18.4632C14.8599 9.27009 22.3283 1.80166 31.5214 1.80166C40.7145 1.80166 48.1829 9.27009 48.1829 18.4632C48.1829 27.6563 40.7145 35.1247 31.5214 35.1247Z" fill="#CECECE"/>
</svg>
