<svg width="50" height="46" viewBox="0 0 50 46" fill="none" xmlns="http://www.w3.org/2000/svg">
<g clip-path="url(#clip0)">
<path d="M49.8048 7.70957C49.6427 7.49482 49.3942 7.36597 49.1241 7.35523L8.37411 5.5191C8.3633 5.5191 8.34169 5.5191 8.33088 5.5191L7.72574 5.52983L7.55284 4.95C7.36913 4.33796 6.96931 3.81181 6.43981 3.45747L1.43657 0.150283C1.23125 0.0106935 0.982707 -0.0322571 0.744972 0.0106935C0.496431 0.0643816 0.291114 0.203971 0.150635 0.407986C-0.130325 0.826753 -0.0114575 1.39585 0.409982 1.67503L5.40242 4.98222C5.58612 5.10033 5.7158 5.28287 5.78063 5.49762L12.1346 27.6064C12.2967 28.1755 12.5669 28.7016 12.9343 29.1741L13.2477 29.5714L10.6974 34.6503C10.2652 35.5093 10.3084 36.5186 10.8163 37.3347C11 37.6246 11.2269 37.8823 11.5079 38.0863L12.0806 38.5158L11.724 39.1279C11.3242 39.8151 11.1189 40.6097 11.1189 41.4043C11.1189 43.9383 13.1936 46 15.7439 46C18.2941 46 20.3689 43.9383 20.3689 41.4043C20.3689 40.8352 20.2609 40.2768 20.0555 39.7399L19.6233 38.6447H37.7992L37.367 39.7399C37.1617 40.2768 37.0536 40.8352 37.0536 41.4043C37.0536 43.9383 39.1284 46 41.6786 46C44.2289 46 46.3037 43.9383 46.3037 41.4043C46.3037 40.6848 46.1416 39.9976 45.8174 39.3534L45.5472 38.8057L46.0011 38.3977C46.1956 38.2259 46.3037 37.9789 46.3037 37.7212C46.3037 37.2166 45.893 36.8085 45.3851 36.8085H13.1828C12.8587 36.8085 12.5669 36.6475 12.394 36.3683C12.2211 36.0891 12.2103 35.767 12.3508 35.4771L14.793 30.6344L15.4305 30.7955C15.9924 30.9351 16.5652 30.978 17.1379 30.9136L41.4841 28.0681C44.2829 27.746 46.5306 25.6736 47.0817 22.9355L49.9994 8.46121C50.0318 8.19277 49.9669 7.92433 49.8048 7.70957ZM41.6678 38.6447C43.2023 38.6447 44.445 39.8795 44.445 41.4043C44.445 42.929 43.2023 44.1638 41.6678 44.1638C40.1333 44.1638 38.8906 42.929 38.8906 41.4043C38.8906 39.8795 40.1333 38.6447 41.6678 38.6447ZM15.7439 38.6447C17.2784 38.6447 18.5211 39.8795 18.5211 41.4043C18.5211 42.929 17.2784 44.1638 15.7439 44.1638C14.2094 44.1638 12.9667 42.929 12.9667 41.4043C12.9559 39.8795 14.2094 38.6447 15.7439 38.6447ZM8.23363 7.35523L16.9434 7.75252L18.4022 16.5681H10.8811L8.23363 7.35523ZM16.911 29.0882C16.8029 29.0989 16.684 29.1097 16.576 29.1097C15.3441 29.1097 14.2526 28.3043 13.9068 27.1017L11.3998 18.3935H18.7048L20.4121 28.6694L16.911 29.0882ZM27.7819 27.8212L22.2492 28.4654L20.5742 18.4043H27.7819V27.8212ZM27.7819 16.5681H20.2717L18.8236 7.83842L27.7819 8.24645V16.5681ZM36.4917 26.8011L29.619 27.6064V18.4043H37.2481L36.4917 26.8011ZM37.4318 16.5681H29.6298V8.32162L38.145 8.69743L37.4318 16.5681ZM45.2663 22.5705C44.8664 24.5354 43.2671 26.0065 41.268 26.2427L38.3828 26.5756L39.1284 18.3935H46.1199L45.2663 22.5705ZM46.4657 16.5681H39.2797L39.9929 8.79407L47.9678 9.15915L46.4657 16.5681Z" fill="#CECECE"/>
</g>
<defs>
<clipPath id="clip0">
<rect width="50" height="46" fill="white"/>
</clipPath>
</defs>
</svg>
