<svg width="50" height="50" viewBox="0 0 50 50" fill="none" xmlns="http://www.w3.org/2000/svg">
<path d="M3.33008 8.33008H7.5H8.33008V3.33008H3.33008V8.33008ZM5 5H6.66992V6.66992H5V5ZM41.6699 3.33008V8.33008H45.8398H46.6699V3.33008H41.6699ZM43.3301 5H45V6.66992H43.3301V5ZM50 11.6699V0H38.3301V5H29.1602V15.8301H15.8301V24.1602H6.66992V11.6602H11.6699V0H0V11.6699H5V25.8398H15.8301V34.1699H19.1602V44.1699H11.6602V38.3398H0V50H11.6699V45.8301H20.8398V34.1699H34.1699V30.8398H43.3398V38.3398H38.3398V50H50V38.3301H45V29.1602H34.1699V15.8301H30.8398V6.66992H38.3398V11.6699H50ZM40 1.66992H48.3301V10H40V1.66992ZM1.66992 10V1.66992H10V10H1.66992ZM10 48.3301H1.66992V40H10V48.3301ZM48.3301 40V48.3301H40V40H48.3301ZM32.5 17.5V32.5H17.5V17.5H32.5ZM41.6699 46.6699H46.6699V41.6699H41.6699V46.6699ZM43.3301 43.3301H45V45H43.3301V43.3301ZM8.33008 41.6699H3.33008V46.6699H8.33008V41.6699ZM6.66992 45H5V43.3301H6.66992V45ZM19.3457 25.3906C19.3457 25.4102 19.3457 25.4297 19.3457 25.4492V25.5078C19.3555 25.5859 19.3652 25.6738 19.375 25.752C19.3945 25.8496 19.4043 25.9473 19.4238 26.0449C19.4336 26.0938 19.4434 26.1426 19.4531 26.1914C19.4727 26.2891 19.4922 26.3965 19.5215 26.4941C19.5508 26.582 19.5703 26.6699 19.5996 26.7578C19.6191 26.8066 19.6289 26.8457 19.6484 26.8945C19.707 27.0703 19.7852 27.2559 19.8633 27.4316C19.8828 27.4805 19.9023 27.5195 19.9219 27.5586C20.127 27.9785 20.3711 28.3691 20.6738 28.7305C20.6836 28.7305 20.6836 28.7402 20.6934 28.75C20.8105 28.8965 20.9375 29.0332 21.0742 29.1699C21.1035 29.1992 21.1426 29.2383 21.1719 29.2676C21.2305 29.3262 21.2988 29.3848 21.3574 29.4434C21.3965 29.4824 21.4453 29.5117 21.4844 29.5508C21.5039 29.5703 21.5332 29.5898 21.5527 29.6094C21.6797 29.707 21.7969 29.7949 21.9336 29.8828L22.0312 29.9512C22.1582 30.0293 22.2852 30.1074 22.4121 30.1855C22.832 30.4199 23.2812 30.5859 23.7402 30.7129C23.7891 30.7324 23.8281 30.7422 23.877 30.752C23.9258 30.7617 23.9648 30.7715 24.0137 30.7813C24.0723 30.791 24.1309 30.8008 24.1797 30.8105C24.2676 30.8301 24.3555 30.8398 24.4434 30.8496C24.4531 30.8496 24.4629 30.8496 24.4629 30.8496C24.5508 30.8594 24.6484 30.8691 24.7363 30.8789H24.7559C24.8438 30.8887 24.9316 30.8887 25.0293 30.8984H25.1953C25.2734 30.8984 25.3418 30.8984 25.4199 30.8984C25.459 30.8984 25.498 30.8984 25.5371 30.8984H25.5762H25.6348C25.6641 30.8984 25.7031 30.8984 25.7324 30.8887C25.8398 30.8789 25.9375 30.8691 26.0352 30.8594C26.0742 30.8594 26.1035 30.8496 26.1426 30.8398L26.3086 30.8105C26.3281 30.8105 26.3477 30.8008 26.3672 30.8008C26.3867 30.791 26.4062 30.791 26.4258 30.7813L26.4746 30.7715C26.4941 30.7617 26.5137 30.7617 26.5332 30.752C26.8457 30.6836 27.1484 30.5859 27.4414 30.459L27.4805 30.4395C27.5195 30.4199 27.5586 30.4004 27.6074 30.3906C27.7148 30.3418 27.8223 30.2832 27.9395 30.2246L28.0664 30.1562C28.0762 30.1562 28.0859 30.1465 28.0957 30.1367C28.1055 30.127 28.1055 30.127 28.1152 30.127C28.291 30.0195 28.4668 29.9121 28.6328 29.7949L28.7207 29.7266C28.7402 29.707 28.7695 29.6973 28.7891 29.6777C28.8184 29.6582 28.8379 29.6387 28.8672 29.6191L28.9941 29.5117C29.0332 29.4727 29.0723 29.4434 29.1211 29.4043C29.248 29.2871 29.3652 29.1699 29.4922 29.043C29.5508 28.9844 29.5996 28.9258 29.6582 28.8672L29.4922 28.7012L28.623 27.832L28.3301 28.1152C27.6855 28.7598 26.8652 29.1895 25.9766 29.3457V27.2266H24.502V29.3555H24.4824C23.584 29.1992 22.7441 28.7793 22.0898 28.125C21.4453 27.4805 21.0156 26.6406 20.8594 25.752H27.4316V24.2871H20.8496V24.2676C21.0059 23.3691 21.4355 22.5293 22.0801 21.875C22.7344 21.2207 23.5645 20.791 24.4727 20.6348H24.4824V22.8027H25.957V20.6445C26.8457 20.8008 27.666 21.2305 28.3105 21.875L28.6035 22.168L28.8477 21.9238L29.3457 21.4258L29.3945 21.377L29.6289 21.1426C29.5605 21.0645 29.4922 20.9863 29.4238 20.918C29.3555 20.8496 29.2969 20.791 29.2285 20.7227C29.1992 20.6934 29.1699 20.6641 29.1309 20.6348C29.082 20.5859 29.0332 20.5469 28.9746 20.498L28.8184 20.3711C28.584 20.1855 28.3398 20.0195 28.0859 19.873C28.0664 19.8633 28.0566 19.8535 28.0273 19.8438L27.9004 19.7754C27.7441 19.6875 27.5781 19.6191 27.4023 19.541C27.3633 19.5215 27.3242 19.5117 27.2949 19.4922C26.9629 19.3652 26.6211 19.2676 26.2598 19.1992L26.1328 19.1797C26.0742 19.1699 26.0059 19.1602 25.9473 19.1504C25.918 19.1504 25.8789 19.1406 25.8398 19.1406C25.8008 19.1309 25.7715 19.1309 25.7324 19.1309C25.6934 19.1211 25.6641 19.1211 25.625 19.1211C25.6055 19.1211 25.5859 19.1211 25.5664 19.1211C25.5469 19.1211 25.5273 19.1211 25.5078 19.1211C25.4785 19.1211 25.4492 19.1211 25.4199 19.1211C25.3418 19.1211 25.2734 19.1211 25.1953 19.1211C25.1367 19.1211 25.0879 19.1211 25.0293 19.1211C24.9414 19.1211 24.8438 19.1309 24.7559 19.1406H24.7363C24.6387 19.1504 24.5312 19.1602 24.4434 19.1699C24.3555 19.1895 24.2676 19.1992 24.1797 19.209C24.0723 19.2285 23.9551 19.2578 23.8477 19.2773C23.7109 19.3066 23.584 19.3457 23.4473 19.3848C23.2129 19.4531 22.998 19.541 22.7734 19.6387C22.6855 19.668 22.6074 19.7168 22.5195 19.7656C22.4805 19.7852 22.4316 19.8145 22.3926 19.834C22.3438 19.8633 22.3047 19.8828 22.2559 19.9121C22.2168 19.9316 22.1875 19.9512 22.1484 19.9707C22.1094 20 22.0703 20.0195 22.0215 20.0488C21.9824 20.0781 21.9434 20.0977 21.9043 20.127C21.8555 20.1562 21.8164 20.1855 21.7773 20.2148C21.748 20.2441 21.709 20.2637 21.6797 20.293C21.6406 20.3223 21.6016 20.3516 21.5625 20.3809C21.4941 20.4297 21.4258 20.4883 21.3574 20.5469C21.3574 20.5566 21.3477 20.5566 21.3379 20.5664C21.2695 20.625 21.2012 20.6836 21.1328 20.752C21.1035 20.7812 21.0645 20.8105 21.0352 20.8496C20.9668 20.918 20.9082 20.9863 20.8398 21.0547C20.7715 21.123 20.7129 21.1914 20.6543 21.2695C20.625 21.2988 20.6055 21.3281 20.5762 21.3574C20.5078 21.4355 20.4492 21.5234 20.3906 21.6016C20.3613 21.6406 20.3418 21.6797 20.3125 21.7188C20.2832 21.7578 20.2637 21.7969 20.2344 21.8359C20.2051 21.875 20.1855 21.9141 20.1562 21.9629C20.1367 22.002 20.1172 22.041 20.0977 22.0703C20.0684 22.1094 20.0488 22.1582 20.0195 22.207C20 22.2461 19.9707 22.2949 19.9512 22.334C19.8633 22.5 19.7852 22.6758 19.7168 22.8516C19.6973 22.9004 19.6777 22.9395 19.668 22.9883C19.6191 23.125 19.5801 23.2617 19.5312 23.3984C19.5215 23.4375 19.5117 23.4668 19.502 23.5059C19.4922 23.5254 19.4922 23.5547 19.4824 23.5742C19.4727 23.623 19.4629 23.6621 19.4531 23.7109C19.4141 23.8867 19.375 24.0723 19.3555 24.2578C19.3457 24.3457 19.3359 24.4238 19.3262 24.502C19.3262 24.5215 19.3262 24.541 19.3262 24.5605C19.3262 24.5801 19.3262 24.5898 19.3262 24.6094C19.3262 24.6875 19.3164 24.7559 19.3164 24.8242C19.3164 24.8828 19.3164 24.9316 19.3164 24.9902C19.3164 25.0488 19.3164 25.0977 19.3164 25.1562C19.3359 25.2441 19.3457 25.3125 19.3457 25.3906Z" fill="#000000"/>
</svg>
