<svg xmlns="http://www.w3.org/2000/svg" width="50" height="50" fill="none" viewBox="0 0 50 50">
    <path fill="#000" d="M29.57 34.965h12.375c1.336 0 2.441-.394 3.255-1.182.835-.788 1.273-1.867 1.273-3.215 0-.518-.02-1.016-.041-1.514a17.243 17.243 0 0 0-.21-1.617c-.104-.58-.229-1.12-.396-1.618a8.809 8.809 0 0 0-.667-1.514c-.293-.497-.626-.954-1.002-1.306a4.71 4.71 0 0 0-1.46-.913c-.564-.228-1.19-.331-1.858-.331-.271 0-.522.103-1.002.414-.292.187-.647.415-1.043.664-.334.207-.793.415-1.357.601a5.085 5.085 0 0 1-1.648.27 5.085 5.085 0 0 1-1.649-.27c-.563-.186-1.022-.373-1.356-.601-.397-.249-.751-.477-1.044-.664-.48-.31-.75-.415-1.001-.415-.668 0-1.294.104-1.858.332-.563.228-1.064.519-1.46.913-.376.373-.73.809-1.002 1.306a8.8 8.8 0 0 0-.668 1.514 11.47 11.47 0 0 0-.396 1.618c-.105.58-.167 1.12-.209 1.617-.042.498-.042.996-.042 1.514 0 1.327.418 2.406 1.273 3.215.752.788 1.858 1.182 3.193 1.182zm-2.984-5.786c.02-.436.104-.933.188-1.452a8.99 8.99 0 0 1 .354-1.43 5.78 5.78 0 0 1 .543-1.224c.209-.374.46-.706.751-.975.25-.249.585-.456.96-.601.355-.146.752-.208 1.19-.229.062.021.146.083.292.187.313.207.668.436 1.064.684.438.29 1.023.54 1.711.747.71.228 1.42.332 2.129.332.71 0 1.419-.125 2.129-.332.688-.228 1.252-.477 1.71-.747.397-.248.752-.477 1.065-.684.146-.104.25-.145.292-.187.438.021.835.083 1.19.229.375.145.71.352.96.6.27.27.521.582.75.976.23.394.418.808.543 1.223.146.436.25.913.355 1.431.084.518.167 1.016.188 1.452.042.456.042.933.042 1.41 0 .913-.272 1.618-.793 2.115-.543.519-1.273.768-2.233.768H29.59c-.96 0-1.67-.25-2.233-.768-.543-.518-.793-1.203-.793-2.115-.02-.498 0-.975.021-1.41zm9.015-7.445c1.69 0 3.172-.602 4.382-1.805 1.21-1.202 1.816-2.654 1.816-4.354 0-1.68-.605-3.153-1.816-4.356-1.21-1.202-2.67-1.804-4.382-1.804-1.69 0-3.172.602-4.382 1.804-1.21 1.203-1.816 2.655-1.816 4.356 0 1.68.605 3.152 1.816 4.355 1.21 1.202 2.67 1.804 4.382 1.804zm-3.318-9.436c.918-.913 2.003-1.369 3.318-1.369s2.379.436 3.318 1.369c.918.912 1.377 1.99 1.377 3.297 0 1.307-.459 2.364-1.377 3.298-.918.912-2.003 1.368-3.318 1.368s-2.379-.456-3.318-1.368c-.918-.913-1.377-1.991-1.377-3.298 0-1.306.459-2.385 1.377-3.297zM46.306 0H25.188c-2.024 0-3.694 1.638-3.694 3.67v42.66c0 2.01 1.649 3.67 3.694 3.67h21.118C48.331 50 50 48.362 50 46.33V3.67A3.676 3.676 0 0 0 46.306 0zm2.025 46.33c0 1.099-.898 1.99-2.025 1.99H25.188a1.998 1.998 0 0 1-2.003-1.99v-6.326H48.33v6.325zm0-8.006H23.184V6.657h25.147v31.667zm0-33.326H23.184V3.67c0-1.1.898-1.991 2.004-1.991h21.118c1.106 0 2.025.892 2.025 1.99v1.328zM35.747 47.49c1.837 0 3.36-1.493 3.36-3.34 0-1.824-1.503-3.338-3.36-3.338a3.347 3.347 0 0 0-3.36 3.339c0 1.846 1.524 3.339 3.36 3.339zm0-4.998c.918 0 1.67.746 1.67 1.659a1.67 1.67 0 0 1-3.34 0c0-.913.752-1.66 1.67-1.66zm0-40.004h-3.36a.835.835 0 0 0-.834.83c0 .455.375.829.834.829h3.36c.46 0 .835-.374.835-.83a.848.848 0 0 0-.835-.83zm3.36 0h-.835a.835.835 0 0 0-.835.83c0 .455.376.829.835.829h.835c.459 0 .835-.374.835-.83a.848.848 0 0 0-.835-.83zM9.474 29.718h1.482V10.473h3.881L12.542 6.49 10.225 2.49 7.91 6.49l-2.316 3.982h3.881v19.245zM17.8 40.875c-.25-.622-.813-.974-1.544-.974h-3.693c.125-.706.333-1.95.313-2.116-.084-1.265-.856-2.779-.96-2.945-.209-.373-1.065-.809-1.941-.622-1.043.228-1.294.892-1.273 1.244 0 0 .042 1.535.042 2.054-.522 1.099-1.816 3.172-2.275 3.587a1.065 1.065 0 0 0-.355-.062h-5.07c-.585 0-1.044.477-1.044 1.037v6.989a.999.999 0 0 0 1.002.912H5.55c.5 0 .918-.373 1.002-.85.292.166.646.352 1.106.352h6.803c1.377 0 1.961-.622 2.233-1.14.292-.602.25-1.265.125-1.638.396-.519.605-1.286.334-1.929.313-.415.646-1.14.334-1.929.438-.539.563-1.327.313-1.97zm-12.666 7.84H1.273v-6.409h3.86v6.408zm10.788-6.243l-.187.02-.146.602.25.062c.313.083.459.25.438.498-.02.311-.334.684-.689.726l-.187.02-.146.623.25.062c.292.083.438.249.438.498-.02.31-.313.684-.688.726l-.188.02-.167.643.292.042a.36.36 0 0 1 .313.435c-.02.353-.334.726-.96.726H7.638c-.188 0-.397-.145-.585-.27-.23-.145-.459-.29-.688-.29h-.042V42.68c.5-.31.835-.539 1.043-.726.46-.373 2.672-3.795 2.672-4.355 0-.352-.021-1.68-.042-2.094.104-.083.375-.207.835-.041.167.31.71 1.43.772 2.28 0 .021-.334 2.323-.522 3.029l-.083.331h5.133c.396 0 .5.228.5.436.022.435-.229.87-.709.933z"/>
</svg>
