<svg width="50" height="50" viewBox="0 0 50 50" fill="none" xmlns="http://www.w3.org/2000/svg">
<g clip-path="url(#clip0)">
<path d="M34.858 34.8561C34.4608 34.8561 34.0756 34.964 33.7506 35.1439C33.6062 34.0288 32.6432 33.1775 31.4757 33.1775C31.0785 33.1775 30.6933 33.2854 30.3683 33.4652C30.2239 32.3501 29.261 31.4988 28.0934 31.4988C27.6962 31.4988 27.3351 31.5947 27.0101 31.7746V28.789C27.0101 27.542 25.987 26.5108 24.7232 26.5108C23.4714 26.5108 22.4362 27.53 22.4362 28.789V40.2398L18.4882 37.3741C17.441 36.5827 15.9364 36.6906 15.0096 37.6259C14.3115 38.3213 14.3115 39.4484 15.0096 40.1559L22.9779 48.0935C24.2176 49.3285 25.8666 50.012 27.624 50.012H30.2841C32.0414 50.012 33.6784 49.3285 34.9182 48.0935C36.0737 46.9424 36.7598 45.4077 36.832 43.777L37.1449 37.1343C37.1449 35.8753 36.1218 34.8561 34.858 34.8561ZM35.6404 43.717C35.5802 45.048 35.0144 46.307 34.0756 47.2422C33.0645 48.2494 31.7164 48.813 30.2841 48.813H27.624C26.1916 48.813 24.8435 48.2614 23.8204 47.2422L15.8522 39.3046C15.6235 39.0767 15.6235 38.693 15.8522 38.4652C16.3698 37.9496 17.1883 37.8897 17.778 38.3333L22.6769 41.8945C22.8575 42.0264 23.0982 42.0504 23.3028 41.9424C23.5075 41.8465 23.6278 41.6307 23.6278 41.4149V28.789C23.6278 28.1894 24.1213 27.7098 24.7232 27.7098C25.0241 27.7098 25.3009 27.8297 25.4935 28.0336C25.6861 28.2254 25.8065 28.5012 25.8065 28.801V37.2182C25.8065 37.542 26.0713 37.8177 26.4083 37.8177C26.5768 37.8177 26.7212 37.7458 26.8296 37.6379C26.9379 37.53 27.0101 37.3861 27.0101 37.2182V33.777C27.0101 33.1775 27.4916 32.6978 28.1054 32.6978C28.7073 32.6978 29.1887 33.1894 29.1887 33.777V37.2182C29.1887 37.542 29.4535 37.8177 29.7906 37.8177C29.9591 37.8177 30.1035 37.7458 30.2118 37.6379C30.3202 37.53 30.3924 37.3861 30.3924 37.2182V35.4676C30.3924 34.8681 30.8739 34.3885 31.4877 34.3885C32.0896 34.3885 32.571 34.8801 32.571 35.4676V37.2302C32.5831 37.554 32.8479 37.8058 33.1728 37.8058C33.4978 37.8058 33.7747 37.542 33.7747 37.2062V37.1343C33.7747 36.8465 33.883 36.5707 34.0876 36.3669C34.2923 36.1631 34.5691 36.0552 34.87 36.0552C35.4718 36.0552 35.9533 36.5468 35.9533 37.1103L35.6404 43.717ZM20.9437 12.4221L25 10.2998L29.0563 12.4221L28.286 7.92566L31.5599 4.73621L27.0342 4.07674L25 0L22.9779 4.08873L18.4521 4.7482L21.726 7.93765L20.9437 12.4221ZM16.2013 15.1079L11.6755 14.4604L9.64131 10.3597L7.61916 14.4484L3.08137 15.1079L6.35532 18.2974L5.58498 22.7938L9.64131 20.6715L13.6976 22.7938L12.9273 18.2974L16.2013 15.1079ZM10.195 19.6163L9.64131 19.3285L9.08763 19.6163L7.16177 20.6235L7.52287 18.4892L7.6312 17.8777L7.18585 17.446L5.63312 15.9353L7.77564 15.6235L8.3895 15.5396L8.66635 14.976L9.62927 13.0336L10.5922 14.976L10.869 15.5396L11.4829 15.6235L13.6254 15.9353L12.0727 17.446L11.6273 17.8777L11.7357 18.4892L12.0968 20.6235L10.195 19.6163ZM36.3024 22.7938L40.3587 20.6715L44.415 22.7938L43.6447 18.2974L46.9186 15.1079L42.3929 14.4484L40.3707 10.3597L38.3486 14.4484L33.8228 15.1079L37.0968 18.2974L36.3024 22.7938ZM36.3505 15.9353L38.493 15.6235L39.1069 15.5396L39.3837 14.976L40.3467 13.0336L41.3096 14.976L41.5864 15.5396L42.2003 15.6235L44.3428 15.9353L42.7901 17.446L42.3447 17.8777L42.4531 18.4892L42.8142 20.6235L40.8883 19.6163L40.3346 19.3285L39.7809 19.6163L37.8551 20.6235L38.2162 18.4892L38.3245 17.8777L37.8792 17.446L36.3505 15.9353ZM50 31.247L45.4742 30.5875L43.4401 26.4988L41.4179 30.5875L36.8922 31.247L40.1661 34.4365L39.3958 38.9329L43.4521 36.8106L47.5084 38.9329L46.7381 34.4365L50 31.247ZM43.9937 35.7554L43.4401 35.4676L42.8864 35.7554L40.9605 36.7626L41.3216 34.6283L41.43 34.0168L40.9846 33.5851L39.4319 32.0743L41.5744 31.7626L42.1883 31.6787L42.4651 31.1151L43.428 29.1727L44.3909 31.1151L44.6678 31.6787L45.2817 31.7626L47.4242 32.0743L45.8715 33.5851L45.4261 34.0168L45.5344 34.6283L45.8955 36.7626L43.9937 35.7554ZM8.58209 30.5875L6.55994 26.4988L4.5378 30.5875L0 31.247L3.27395 34.4365L2.50361 38.9329L6.55994 36.8106L10.6163 38.9329L9.84593 34.4365L13.1199 31.247L8.58209 30.5875ZM8.66635 34.6283L9.02744 36.7626L7.10159 35.7554L6.54791 35.4676L5.99422 35.7554L4.06837 36.7626L4.42947 34.6283L4.5378 34.0168L4.09244 33.5851L2.53972 32.0743L4.68223 31.7626L5.2961 31.6787L5.57294 31.1151L6.53587 29.1727L7.4988 31.1151L7.77564 31.6787L8.3895 31.7626L10.532 32.0743L8.9793 33.5851L8.53394 34.0168L8.66635 34.6283Z" fill="#000000"/>
</g>
<defs>
<clipPath id="clip0">
<rect width="50" height="50" fill="white"/>
</clipPath>
</defs>
</svg>
