<svg width="50" height="50" viewBox="0 0 50 50" fill="none" xmlns="http://www.w3.org/2000/svg">
<path d="M29.5701 34.9647H41.9449C43.2805 34.9647 44.3865 34.5707 45.2003 33.7827C46.0351 32.9946 46.4733 31.9162 46.4733 30.5682C46.4733 30.0498 46.4524 29.5521 46.4316 29.0543C46.3898 28.5566 46.3272 28.0174 46.2229 27.4367C46.1185 26.8561 45.9933 26.3169 45.8264 25.8192C45.6594 25.3007 45.4299 24.803 45.1586 24.3053C44.8664 23.8075 44.5326 23.3513 44.1569 22.9988C43.7604 22.6255 43.2596 22.3144 42.6962 22.0863C42.1327 21.8582 41.5067 21.7545 40.8389 21.7545C40.5676 21.7545 40.3172 21.8582 39.8372 22.1692C39.5451 22.3559 39.1903 22.584 38.7938 22.8328C38.4599 23.0402 38.0008 23.2476 37.4374 23.4343C36.8948 23.6209 36.3314 23.7039 35.7888 23.7039C35.2462 23.7039 34.6828 23.6209 34.1402 23.4343C33.5768 23.2476 33.1177 23.061 32.7838 22.8328C32.3873 22.584 32.0326 22.3559 31.7404 22.1692C31.2604 21.8582 30.9891 21.7545 30.7387 21.7545C30.071 21.7545 29.4449 21.8582 28.8815 22.0863C28.318 22.3144 27.8172 22.6047 27.4207 22.9988C27.0451 23.372 26.6903 23.8075 26.419 24.3053C26.1477 24.803 25.9182 25.3007 25.7513 25.8192C25.5843 26.3169 25.4591 26.8561 25.3548 27.4367C25.2504 28.0174 25.1878 28.5566 25.1461 29.0543C25.1043 29.5521 25.1043 30.0498 25.1043 30.5682C25.1043 31.8955 25.5217 32.9739 26.3773 33.7827C27.1285 34.5707 28.2346 34.9647 29.5701 34.9647ZM26.586 29.1788C26.6068 28.7433 26.6903 28.2455 26.7738 27.7271C26.8573 27.2086 26.9825 26.7316 27.1285 26.2961C27.2538 25.8814 27.4416 25.4666 27.6711 25.0726C27.8798 24.6993 28.1302 24.3675 28.4224 24.0979C28.6728 23.849 29.0067 23.6416 29.3823 23.4965C29.7371 23.3513 30.1336 23.2891 30.5718 23.2684C30.6344 23.2891 30.7179 23.3513 30.8639 23.455C31.177 23.6624 31.5317 23.8905 31.9282 24.1394C32.3664 24.4297 32.9508 24.6786 33.6394 24.8859C34.3489 25.1141 35.0584 25.2178 35.7679 25.2178C36.4775 25.2178 37.187 25.0933 37.8965 24.8859C38.5851 24.6578 39.1486 24.409 39.6077 24.1394C40.0042 23.8905 40.3589 23.6624 40.672 23.455C40.818 23.3513 40.9224 23.3098 40.9641 23.2684C41.4023 23.2891 41.7988 23.3513 42.1536 23.4965C42.5292 23.6416 42.8631 23.849 43.1135 24.0979C43.3848 24.3675 43.6352 24.6786 43.8648 25.0726C44.0943 25.4666 44.2821 25.8814 44.4073 26.2961C44.5534 26.7316 44.6578 27.2086 44.7621 27.7271C44.8456 28.2455 44.929 28.7433 44.9499 29.1788C44.9917 29.635 44.9917 30.112 44.9917 30.589C44.9917 31.5015 44.7204 32.2066 44.1987 32.7043C43.6561 33.2227 42.9257 33.4716 41.9658 33.4716H29.591C28.6311 33.4716 27.9215 33.2227 27.3581 32.7043C26.8155 32.1858 26.5651 31.5015 26.5651 30.589C26.5442 30.0912 26.5651 29.6143 26.586 29.1788ZM35.601 21.7337C37.2913 21.7337 38.773 21.1323 39.9833 19.9295C41.1937 18.7267 41.7988 17.275 41.7988 15.5745C41.7988 13.8946 41.1937 12.4222 39.9833 11.2194C38.773 10.0166 37.3122 9.41518 35.601 9.41518C33.9107 9.41518 32.429 10.0166 31.2187 11.2194C30.0083 12.4222 29.4032 13.8739 29.4032 15.5745C29.4032 17.2543 30.0083 18.7267 31.2187 19.9295C32.429 21.1323 33.8898 21.7337 35.601 21.7337ZM32.283 12.2978C33.2012 11.3853 34.2863 10.9291 35.601 10.9291C36.9157 10.9291 37.98 11.3646 38.919 12.2978C39.8372 13.2103 40.2963 14.2887 40.2963 15.5952C40.2963 16.9017 39.8372 17.9594 38.919 18.8926C38.0008 19.8051 36.9157 20.2613 35.601 20.2613C34.2863 20.2613 33.222 19.8051 32.283 18.8926C31.3648 17.9801 30.9057 16.9017 30.9057 15.5952C30.9057 14.2887 31.3648 13.2103 32.283 12.2978ZM46.3063 0H25.1878C23.1636 0 21.4942 1.63832 21.4942 3.67068V46.3293C21.4942 48.3409 23.1427 50 25.1878 50H46.3063C48.3305 50 50 48.3617 50 46.3293V3.67068C50 1.63832 48.3514 0 46.3063 0ZM48.3306 46.3293C48.3306 47.4285 47.4332 48.3202 46.3063 48.3202H25.1878C24.0818 48.3202 23.1845 47.4285 23.1845 46.3293V40.0041H48.3306V46.3293V46.3293ZM48.3306 38.3243H23.1845V6.65699H48.3306V38.3243ZM48.3306 4.99793H23.1845V3.67068C23.1845 2.57155 24.0818 1.6798 25.1878 1.6798H46.3063C47.4124 1.6798 48.3306 2.57155 48.3306 3.67068V4.99793V4.99793ZM35.7471 47.4907C37.5835 47.4907 39.1068 45.9975 39.1068 44.1518C39.1068 42.3268 37.6043 40.8129 35.7471 40.8129C33.8898 40.8129 32.3873 42.3061 32.3873 44.1518C32.3873 45.9975 33.9107 47.4907 35.7471 47.4907ZM35.7471 42.4927C36.6653 42.4927 37.4165 43.2393 37.4165 44.1518C37.4165 45.0643 36.6653 45.8109 35.7471 45.8109C34.8289 45.8109 34.0776 45.0643 34.0776 44.1518C34.0776 43.2393 34.8289 42.4927 35.7471 42.4927ZM35.7471 2.48859H32.3873C31.9282 2.48859 31.5526 2.86188 31.5526 3.31813C31.5526 3.77437 31.9282 4.14766 32.3873 4.14766H35.7471C36.2062 4.14766 36.5818 3.77437 36.5818 3.31813C36.5818 2.88262 36.2062 2.48859 35.7471 2.48859ZM39.1068 2.48859H38.2721C37.813 2.48859 37.4374 2.86188 37.4374 3.31813C37.4374 3.77437 37.813 4.14766 38.2721 4.14766H39.1068C39.5659 4.14766 39.9416 3.77437 39.9416 3.31813C39.9416 2.88262 39.5659 2.48859 39.1068 2.48859ZM9.47412 29.718H10.9558V10.4728H14.8372L12.5417 6.49108L10.2254 2.48859L7.90902 6.49108L5.59265 10.4728H9.47412V29.718V29.718ZM17.8005 40.8752C17.5501 40.253 16.9866 39.9005 16.2563 39.9005H12.5626C12.6878 39.1954 12.8965 37.9511 12.8756 37.7852C12.7922 36.5201 12.02 35.0062 11.9157 34.8403C11.707 34.467 10.8514 34.0315 9.97496 34.2182C8.93155 34.4463 8.68114 35.1099 8.702 35.4625C8.702 35.4625 8.74374 36.9971 8.74374 37.5156C8.22204 38.6147 6.92821 40.6885 6.46912 41.1033C6.34391 41.0618 6.23957 41.0411 6.11436 41.0411H1.04341C0.459099 41.0411 0 41.518 0 42.078V49.0668C0.0417362 49.5852 0.479967 49.9793 1.00167 49.9793H5.55092C6.05175 49.9793 6.46912 49.606 6.55259 49.129C6.84474 49.2949 7.1995 49.4815 7.6586 49.4815H14.4616C15.8389 49.4815 16.4232 48.8594 16.6945 48.3409C16.9866 47.7395 16.9449 47.0759 16.8197 46.7026C17.2162 46.1842 17.4249 45.4168 17.1536 44.774C17.4666 44.3592 17.8005 43.6333 17.4875 42.8453C17.9257 42.3061 18.0509 41.518 17.8005 40.8752ZM5.13356 48.7142H1.27295V42.3061H5.13356V48.7142ZM15.9224 42.472L15.7346 42.4927L15.5885 43.0942L15.8389 43.1564C16.1519 43.2393 16.298 43.4052 16.2771 43.6541C16.2563 43.9652 15.9432 44.3384 15.5885 44.3799L15.4007 44.4007L15.2546 45.0228L15.505 45.085C15.7972 45.168 15.9432 45.3339 15.9432 45.5827C15.9224 45.8938 15.6302 46.2671 15.2546 46.3086L15.0668 46.3293L14.8998 46.9722L15.192 47.0137C15.5259 47.0759 15.5259 47.3662 15.505 47.4492C15.4841 47.8017 15.1711 48.175 14.5451 48.175H7.63773C7.44992 48.175 7.24124 48.0299 7.05342 47.9054C6.82387 47.7603 6.59432 47.6151 6.36477 47.6151H6.32304V42.6794C6.82387 42.3683 7.15776 42.1402 7.36644 41.9535C7.82554 41.5803 10.0376 38.1584 10.0376 37.5985C10.0376 37.246 10.0167 35.9187 9.99583 35.5039C10.1002 35.421 10.3715 35.2966 10.8306 35.4625C10.9975 35.7735 11.5401 36.8934 11.6027 37.7437C11.6027 37.7644 11.2688 40.0664 11.081 40.7715L10.9975 41.1033H16.1311C16.5275 41.1033 16.6319 41.3314 16.6319 41.5388C16.6528 41.9743 16.4023 42.4098 15.9224 42.472Z" fill="black"/>
</svg>
