<svg width="50" height="50" viewBox="0 0 50 50" fill="none" xmlns="http://www.w3.org/2000/svg">
<path d="M26.3647 20.9059V16.9176H26.3765C28.0235 17.2118 29.5412 18 30.7294 19.1882L30.8118 19.2706L31.2588 19.7176L31.7059 19.2706L32.6235 18.3529L32.7176 18.2588L33.1529 17.8235C33.0353 17.6824 32.9059 17.5412 32.7765 17.4118C32.6588 17.2824 32.5412 17.1647 32.4118 17.0588C32.3529 17 32.2941 16.9529 32.2353 16.8941C32.1412 16.8118 32.0471 16.7294 31.9529 16.6471L31.6706 16.4118C31.2471 16.0706 30.7882 15.7647 30.3176 15.5059C30.2941 15.4941 30.2588 15.4706 30.2235 15.4471L29.9882 15.3176C29.6941 15.1529 29.3765 15.0118 29.0706 14.8941C29 14.8706 28.9294 14.8353 28.8588 14.8118C28.2471 14.5765 27.6118 14.4 26.9529 14.2706L26.7176 14.2353C26.6 14.2118 26.4941 14.2 26.3647 14.1765C26.2941 14.1647 26.2353 14.1529 26.1647 14.1529C26.1059 14.1412 26.0471 14.1412 25.9765 14.1294C25.9059 14.1176 25.8471 14.1176 25.7765 14.1059C25.7412 14.1059 25.7059 14.1059 25.6706 14.0941C25.6353 14.0941 25.5882 14.0824 25.5529 14.0824C25.4941 14.0824 25.4471 14.0706 25.3882 14.0706C25.2471 14.0706 25.1176 14.0588 24.9765 14.0588C24.8706 14.0588 24.7647 14.0588 24.6706 14.0588C24.5059 14.0588 24.3412 14.0706 24.1765 14.0824C24.1647 14.0824 24.1529 14.0824 24.1529 14.0824C23.9647 14.0941 23.7882 14.1176 23.6 14.1412C23.4353 14.1647 23.2706 14.1882 23.1059 14.2118C22.8941 14.2471 22.6941 14.2941 22.4941 14.3412C22.2471 14.4 22 14.4706 21.7529 14.5412C21.3294 14.6706 20.9176 14.8235 20.5176 15.0118C20.3529 15.0824 20.2 15.1529 20.0471 15.2353C19.9647 15.2706 19.8941 15.3176 19.8118 15.3529C19.7294 15.4 19.6471 15.4471 19.5529 15.4941C19.4824 15.5294 19.4235 15.5765 19.3529 15.6118C19.2824 15.6588 19.2 15.7059 19.1294 15.7529C19.0588 15.8 18.9882 15.8471 18.9176 15.8941C18.8353 15.9529 18.7529 16 18.6824 16.0588C18.6235 16.1059 18.5529 16.1529 18.4941 16.2C18.4235 16.2588 18.3529 16.3059 18.2824 16.3647C18.1529 16.4588 18.0353 16.5647 17.9059 16.6706C17.8941 16.6824 17.8824 16.6941 17.8706 16.7059C17.7412 16.8118 17.6235 16.9176 17.5059 17.0471C17.4471 17.1059 17.3765 17.1647 17.3176 17.2235C17.2 17.3529 17.0824 17.4706 16.9647 17.6C16.8471 17.7294 16.7294 17.8588 16.6235 18C16.5765 18.0588 16.5294 18.1176 16.4824 18.1647C16.3647 18.3176 16.2471 18.4588 16.1412 18.6118C16.0941 18.6824 16.0471 18.7529 15.9882 18.8235C15.9412 18.8941 15.8941 18.9765 15.8471 19.0471C15.8 19.1176 15.7529 19.2 15.7059 19.2706C15.6588 19.3412 15.6235 19.4 15.5882 19.4706C15.5412 19.5529 15.4941 19.6353 15.4471 19.7176C15.4 19.7882 15.3647 19.8706 15.3294 19.9529C15.1647 20.2588 15.0235 20.5882 14.8941 20.9176C14.8588 21 14.8353 21.0824 14.8 21.1647C14.7059 21.4118 14.6235 21.6706 14.5529 21.9294C14.5294 22 14.5176 22.0588 14.4941 22.1294C14.4824 22.1765 14.4706 22.2118 14.4588 22.2588C14.4353 22.3412 14.4118 22.4353 14.4 22.5176C14.3294 22.8471 14.2706 23.1882 14.2235 23.5294C14.2 23.6824 14.1882 23.8353 14.1765 23.9882C14.1765 24.0235 14.1647 24.0706 14.1647 24.1059C14.1647 24.1412 14.1529 24.1765 14.1529 24.2C14.1412 24.3294 14.1412 24.4706 14.1294 24.6C14.1294 24.7059 14.1294 24.8118 14.1294 24.9059C14.1294 25.0118 14.1294 25.1176 14.1294 25.2118C14.1294 25.3529 14.1412 25.4824 14.1529 25.6118C14.1529 25.6471 14.1529 25.6824 14.1647 25.7059L14.1765 25.8235C14.1882 25.9765 14.2118 26.1294 14.2235 26.2824C14.2471 26.4588 14.2706 26.6471 14.3059 26.8235C14.3294 26.9176 14.3412 27 14.3529 27.0941C14.3882 27.2824 14.4353 27.4706 14.4824 27.6471C14.5294 27.8118 14.5765 27.9765 14.6235 28.1412C14.6471 28.2235 14.6824 28.3059 14.7059 28.3882C14.8118 28.7176 14.9412 29.0588 15.0941 29.3765C15.1294 29.4588 15.1647 29.5412 15.2118 29.6118C15.5765 30.3882 16.0471 31.1176 16.6 31.7882C16.6118 31.8 16.6118 31.8118 16.6235 31.8118C16.8353 32.0824 17.0706 32.3412 17.3294 32.5882C17.3882 32.6471 17.4588 32.7059 17.5176 32.7647C17.6353 32.8706 17.7412 32.9882 17.8706 33.0824C17.9412 33.1529 18.0235 33.2235 18.1059 33.2824C18.1529 33.3176 18.1882 33.3529 18.2353 33.3882C18.4588 33.5647 18.6941 33.7412 18.9412 33.9059C19 33.9529 19.0588 33.9882 19.1294 34.0235C19.3647 34.1765 19.6 34.3176 19.8353 34.4471C20.6118 34.8706 21.4353 35.2 22.2941 35.4118C22.3765 35.4353 22.4706 35.4588 22.5529 35.4824C22.6353 35.5059 22.7294 35.5176 22.8118 35.5412C22.9176 35.5647 23.0235 35.5765 23.1294 35.6C23.2941 35.6235 23.4588 35.6471 23.6235 35.6706C23.6353 35.6706 23.6471 35.6706 23.6588 35.6824C23.8235 35.7059 24 35.7176 24.1647 35.7294C24.1765 35.7294 24.1765 35.7294 24.1882 35.7294C24.3529 35.7412 24.5176 35.7529 24.6824 35.7529C24.7882 35.7529 24.8941 35.7529 24.9882 35.7529C25.1294 35.7529 25.2588 35.7529 25.4 35.7412C25.4706 35.7412 25.5412 35.7294 25.6118 35.7294C25.6353 35.7294 25.6588 35.7294 25.6824 35.7294L25.7765 35.7176C25.8353 35.7176 25.8941 35.7176 25.9647 35.7059C26.1647 35.6824 26.3529 35.6706 26.5176 35.6471C26.5765 35.6353 26.6471 35.6235 26.7059 35.6118L27.0118 35.5647C27.0471 35.5529 27.0824 35.5529 27.1294 35.5412C27.1647 35.5294 27.2 35.5176 27.2353 35.5176L27.3294 35.4941C27.3647 35.4824 27.4 35.4706 27.4353 35.4706C28.0118 35.3294 28.5647 35.1529 29.1059 34.9294L29.1765 34.8941C29.2588 34.8588 29.3294 34.8235 29.4 34.8C29.6118 34.7059 29.8118 34.6118 30.0118 34.5059L30.2471 34.3882C30.2588 34.3765 30.2824 34.3765 30.2941 34.3647C30.3059 34.3529 30.3176 34.3529 30.3294 34.3412C30.6588 34.1529 30.9765 33.9529 31.2941 33.7294L31.4706 33.6C31.5176 33.5647 31.5529 33.5412 31.6 33.5059C31.6471 33.4706 31.6941 33.4353 31.7529 33.3882L31.9765 33.2C32.0471 33.1412 32.1294 33.0706 32.2 33V33.0118C32.4353 32.8 32.6588 32.5765 32.8824 32.3529C32.9765 32.2471 33.0824 32.1412 33.1765 32.0353L32.8824 31.7412V31.7294L31.2824 30.1294L30.7529 30.6588C29.5647 31.8588 28.0471 32.6353 26.4 32.9294V29H23.6471V32.9412H23.6235C21.9529 32.6588 20.4118 31.8706 19.2118 30.6588C18.0118 29.4588 17.2235 27.9294 16.9412 26.2706H29.0941V23.5647H16.9294V23.5176C17.2118 21.8588 18 20.3059 19.2 19.1059C20.4 17.8941 21.9529 17.0941 23.6235 16.8235H23.6471V20.8235H26.3647V20.9059ZM25 0C11.1882 0 0 11.1882 0 25C0 38.8118 11.1882 50 25 50C38.8 50 50 38.8 50 25C50 11.2 38.8 0 25 0ZM48.4824 24.2824H45.8588C45.7765 21.9412 45.3176 19.6941 44.5294 17.6118L46.9412 16.6C47.8588 19 48.4 21.5765 48.4824 24.2824ZM46.3765 15.2353L43.9647 16.2471C43.0353 14.2235 41.7882 12.3882 40.2941 10.7765L42.1412 8.92941C43.8706 10.7765 45.3059 12.9059 46.3765 15.2353ZM34.5647 3.52941C36.9765 4.61176 39.1765 6.09412 41.0824 7.88235L39.2353 9.72941C37.5765 8.17647 35.6706 6.89412 33.5765 5.95294L34.5647 3.52941ZM25.7412 1.51765C28.3647 1.6 30.8706 2.10588 33.2 2.98824L32.2118 5.41176C30.1765 4.65882 28.0118 4.22353 25.7412 4.14118V1.51765ZM24.2588 1.51765V4.14118C21.9176 4.22353 19.6706 4.69412 17.5882 5.48235L16.5765 3.07059C18.9765 2.14118 21.5529 1.6 24.2588 1.51765ZM15.2118 3.63529L16.2235 6.04706C14.2 6.98824 12.3647 8.23529 10.7529 9.72941L8.90588 7.88235C10.7529 6.15294 12.8824 4.70588 15.2118 3.63529ZM7.87059 8.92941L9.71765 10.7765C8.17647 12.4353 6.89412 14.3412 5.95294 16.4353L3.52941 15.4471C4.6 13.0353 6.08235 10.8353 7.87059 8.92941ZM2.97647 16.8235L5.4 17.8118C4.65882 19.8353 4.22353 22.0118 4.14118 24.2824H1.51765C1.58824 21.6588 2.10588 19.1647 2.97647 16.8235ZM1.51765 25.7529H4.14118C4.22353 28.0941 4.69412 30.3412 5.48235 32.4235L3.07059 33.4353C2.14118 31.0353 1.6 28.4588 1.51765 25.7529ZM3.64706 34.8L6.05882 33.7882C7 35.8 8.23529 37.6353 9.74118 39.2471L7.88235 41.0941C6.15294 39.2471 4.71765 37.1294 3.64706 34.8ZM15.4471 46.4706C13.0353 45.3882 10.8471 43.9176 8.94118 42.1294L10.7882 40.2824C12.4471 41.8235 14.3529 43.1059 16.4353 44.0471L15.4471 46.4706ZM24.2588 48.4824C21.6471 48.4 19.1412 47.8941 16.8118 47.0235L17.8 44.6C19.8235 45.3412 21.9882 45.7765 24.2588 45.8588V48.4824ZM5.57647 25C5.57647 14.2941 14.2941 5.57647 25 5.57647C35.7059 5.57647 44.4235 14.2941 44.4235 25C44.4235 35.7059 35.7059 44.4235 25 44.4235C14.2941 44.4235 5.57647 35.7059 5.57647 25ZM25.7412 48.4824V45.8588C28.0824 45.7765 30.3176 45.3176 32.4 44.5176L33.4118 46.9412C31.0118 47.8588 28.4353 48.4 25.7412 48.4824ZM34.7765 46.3647L33.7647 43.9529C35.7765 43.0235 37.6118 41.7765 39.2235 40.2824L41.0706 42.1294C39.2235 43.8588 37.1059 45.2941 34.7765 46.3647ZM42.1059 41.0941L40.2588 39.2471C41.8 37.5882 43.0824 35.6941 44.0353 33.6L46.4588 34.5882C45.3765 36.9882 43.8941 39.1882 42.1059 41.0941ZM47.0118 33.2118L44.5882 32.2235C45.3412 30.2 45.7765 28.0235 45.8588 25.7647H48.4824C48.4 28.3765 47.8824 30.8706 47.0118 33.2118Z" fill="#000000"/>
</svg>
