<svg width="50" height="50" viewBox="0 0 50 50" fill="none" xmlns="http://www.w3.org/2000/svg">
<g clip-path="url(#clip0)">
<path d="M48.3392 43.3405V10.0104H37.2509C35.8734 3.24287 29.279 -1.12236 22.5088 0.254591C17.585 1.25068 13.7456 5.09834 12.7491 10.0104H1.67057V43.3308H0V50.0007H50V43.3405H48.3392ZM17.1747 5.01045C19.2165 2.88154 22.0496 1.67061 25 1.68037C30.9789 1.67061 35.8245 6.51436 35.8343 12.4812C35.8343 15.4304 34.6327 18.2624 32.5029 20.3034V15.8405C32.5029 13.3796 30.6956 11.28 28.263 10.9089C28.8492 10.1862 29.1618 9.27803 29.1716 8.35029C29.1716 6.04561 27.3056 4.18037 25 4.18037C22.6944 4.18037 20.8284 6.04561 20.8284 8.35029C20.8284 9.27803 21.1508 10.1862 21.737 10.9089C19.2946 11.28 17.4971 13.3796 17.4971 15.8405V20.3132C13.1887 16.1726 13.0422 9.32686 17.1747 5.01045ZM27.501 16.6804V23.0378C25.8597 23.4382 24.1403 23.4382 22.499 23.0378V16.6804H20.8284V22.5104C20.2521 22.2663 19.6854 21.9733 19.1579 21.6315V15.8503C19.1579 14.0144 20.6526 12.5202 22.4893 12.5202H27.4912C29.3279 12.5202 30.8226 14.0144 30.8226 15.8503V21.6315C30.295 21.9733 29.7382 22.2761 29.152 22.5202V16.6901H27.501V16.6804ZM22.499 8.35029C22.499 6.97334 23.6225 5.85029 25 5.85029C26.3775 5.85029 27.501 6.97334 27.501 8.35029C27.501 9.72725 26.3775 10.8503 25 10.8503C23.6225 10.8503 22.499 9.72725 22.499 8.35029ZM17.4971 22.4812V22.5007H17.5264C21.9519 25.8308 28.0383 25.8308 32.4639 22.5007H32.4932V22.4812C34.9355 20.655 36.6256 17.9987 37.2411 15.0104H43.3275V38.3405H6.66276V15.0104H12.7491C13.3744 17.9987 15.0547 20.655 17.4971 22.4812ZM3.33138 11.6804H12.544C12.5244 11.9538 12.5049 12.2272 12.5049 12.5105C12.5049 12.7937 12.5244 13.0671 12.544 13.3405H5.00195V40.0007H45.0078V13.3405H37.4658C37.4853 13.0671 37.5049 12.7937 37.5049 12.5105C37.5049 12.2272 37.4853 11.9538 37.4658 11.6804H46.6784V43.3405H32.5127C32.288 43.3405 32.0828 43.4284 31.9265 43.5847L30.5002 45.0104H19.5096L18.0832 43.5847C17.9269 43.4284 17.712 43.3405 17.4971 43.3405H3.33138V11.6804ZM48.3392 48.3308H1.67057V45.0007H17.1649L18.5912 46.4265C18.7476 46.5827 18.9625 46.6706 19.1774 46.6706H30.8421C31.0668 46.6706 31.272 46.5827 31.4283 46.4265L32.8546 45.0007H48.349V48.3308H48.3392ZM25.8402 41.6706H24.1696V43.3405H25.8402V41.6706ZM24.9707 36.2702L32.1219 29.112L30.9496 27.9304L24.9707 33.9167L21.9617 30.9089L20.7796 32.0905L24.9707 36.2702Z" fill="#000000"/>
</g>
<defs>
<clipPath id="clip0">
<rect width="50" height="50" fill="#000000"/>
</clipPath>
</defs>
</svg>
