<svg width="17" height="12" viewBox="0 0 17 12" fill="none" xmlns="http://www.w3.org/2000/svg">
<g clip-path="url(#clip0)">
<path d="M12.7771 3.47522C12.7539 3.47522 1.19917 3.47522 1.19917 3.47522L3.63296 0.720682C3.79233 0.543078 3.77573 0.268295 3.59976 0.107446C3.42378 -0.0534031 3.15151 -0.036648 2.99214 0.140956L0.249561 3.24735C-0.085791 3.62602 -0.085791 4.19569 0.249561 4.57435L2.99214 7.67405C3.07847 7.77123 3.19468 7.81814 3.31421 7.81814C3.41714 7.81814 3.51675 7.78128 3.59976 7.70756C3.77573 7.54671 3.79233 7.27528 3.63296 7.09432L1.19917 4.33978C1.19917 4.33978 12.7539 4.33978 12.7771 4.33978C14.6332 4.33978 16.1406 5.86115 16.1406 7.73437C16.1406 9.60759 14.6332 11.1289 12.7771 11.1289H10.7318C10.496 11.1289 10.3035 11.3233 10.3035 11.5612C10.3035 11.7992 10.496 11.9935 10.7318 11.9935H12.7771C15.1046 11.9935 17.0005 10.0834 17.0005 7.73101C17.0005 5.38865 15.108 3.47522 12.7771 3.47522Z" fill="white"/>
</g>
<defs>
<clipPath id="clip0">
<rect width="17" height="12" fill="white"/>
</clipPath>
</defs>
</svg>
