<svg width="16" height="13" viewBox="0 0 16 13" fill="none" xmlns="http://www.w3.org/2000/svg">
<path d="M15.4045 1.41211C15.4709 0.947268 15.4377 0.64844 15.2385 0.449221C15.0393 0.250002 14.7737 0.216799 14.4416 0.316408L1.25999 5.39649C0.795147 5.59571 0.562725 5.79492 0.562725 5.99414C0.529522 6.22656 0.695538 6.39258 1.09398 6.49219L4.48069 7.55469L12.3166 2.60742C12.4162 2.54102 12.5159 2.50781 12.6155 2.50781C12.7151 2.50781 12.7815 2.50781 12.8147 2.57422C12.8479 2.64063 12.8147 2.67383 12.7483 2.74024L6.40648 8.48438L6.14085 11.9707C6.30687 11.9707 6.43968 11.9375 6.57249 11.8711C6.6389 11.8379 6.7053 11.7715 6.83812 11.6387L8.49827 10.0449L11.9182 12.5684C12.217 12.7676 12.4826 12.8008 12.6819 12.7012C12.8811 12.6016 13.0471 12.3691 13.1467 11.9707L15.4045 1.41211Z" fill="black"/>
</svg>
